<?xml version="1.0" encoding="UTF-8"?>
<svg id="core" data-name="core2" xmlns="http://www.w3.org/2000/svg" viewBox="0 0 486.28 576.94">
  <defs>
    <style>
      .cls-1 {
        fill-rule: evenodd;
      }

      .cls-1, .cls-2 {
        fill: none;
        stroke: #fff;
        stroke-miterlimit: 10;
      }

      .cls-2 {
        stroke-width: .6px;
      }
    </style>
  </defs>
  <g id="Staffs">
    <g id="Staff5">
      <g>
        <rect class="cls-2" x="236.64" y="186.38" width="12.56" height="177.09" transform="translate(-74.45 90.88) rotate(-18.43)"/>
        <path class="cls-2" d="M220.36,189.98l55.46,166.45-10.35,3.45-55.46-166.45,10.35-3.45h0ZM221.4,187.9l-1.56.52-10.35,3.45-1.56.52.52,1.56,55.46,166.45.52,1.56,1.56-.52,10.35-3.45,1.56-.52-.52-1.56-55.46-166.45-.52-1.56h0Z"/>
      </g>
      <g>
        <path class="cls-2" d="M217.36,198.46c-.26.08-.5.1-.71.11-.35.03-.6.05-.84.06-.39.02-.78.03-1.17.02-.39,0-.78-.03-1.17-.06-.39-.03-.78-.08-1.16-.15-.39-.06-.77-.14-1.15-.24-.38-.1-.76-.21-1.12-.33-.37-.13-.73-.27-1.09-.43-.36-.16-.71-.34-1.05-.54-.34-.2-.68-.42-1-.65-3.6-2.64-5.09-7.42-3.47-11.11.18-.42.41-.82.63-1.23.5-.91.96-1.76.89-2.62-.08-.93-.79-1.82-2.18-2.74-3.17-2.11-7.02-3.15-10.82-2.95l-1.03.06.18-1.02c.73-4.22,2.65-8.29,5.44-11.55-5.73-5.47-13.47-8.96-21.36-9.62l-1.92-.16,1.45-1.28c1.84-1.63,3.42-3.56,4.7-5.74.95-1.63,1.66-3.38,2.27-5.03l.26-.68c.25-.66.51-1.32.72-2,.21-.68.3-1.37.4-2.1l.07-.51c.15-1.06-1.47-2.14-2.6-2.61-1.05-.44-2.18-.63-3.14-.76-.61-.08-1.2-.23-1.79-.37-.4-.1-.81-.2-1.23-.28l-.35-.06c-2.2-.4-4.47-.82-6.67-1.49l-1.84-.57,1.68-.94c.45-.25.91-.49,1.38-.73,1.09-.56,2.21-1.15,3.13-1.88.82-.66,1.51-1.45,2.06-2.35.48-.79,1.01-1.71,1.17-2.66.1-.65.09-1.34.08-2.08-.02-1.38-.04-2.8.68-4.13.69-1.26,2.04-2.22,4.12-2.91,1.59-.53,3.34-.83,4.89-1.1.83-.14,1.58-.27,2.2-.42l1.27-.3,1.07-.47c.58-.25,1.26-.6,2.01-.98,1.4-.72,2.98-1.53,4.57-2.06,2.09-.69,3.74-.74,5.05-.14,1.38.63,2.22,1.78,3.02,2.9.43.6.84,1.16,1.31,1.61.69.66,1.67,1.08,2.53,1.43.98.39,2,.6,3.06.64,1.17.04,2.42-.17,3.63-.37.52-.09,1.03-.17,1.54-.24l1.9-.25-1.13,1.56c-1.35,1.85-2.91,3.55-4.43,5.18l-.25.27c-.29.31-.56.64-.82.96-.39.47-.77.94-1.21,1.37-.7.68-1.48,1.51-2.06,2.49-.62,1.05-1.26,2.89-.51,3.65l.36.37c.51.53,1,1.02,1.58,1.45.57.42,1.16.79,1.75,1.16l.63.4c1.49.95,3.1,1.93,4.84,2.66,2.33.98,4.75,1.58,7.2,1.78l1.92.16-1.44,1.28c-5.92,5.26-10.02,12.7-11.33,20.51,4.18.94,8.16,3.05,11.28,5.98l.75.71-.86.57c-3.17,2.12-5.62,5.26-6.9,8.85-.56,1.57-.59,2.71-.1,3.5.45.72,1.34,1.13,2.28,1.56.42.19.85.39,1.24.61,3.52,1.98,5.19,6.69,3.89,10.97l-.12.38c-.13.38-.28.74-.44,1.1-.17.36-.35.7-.55,1.04-.2.34-.41.66-.64.98-.23.32-.47.63-.73.92-.25.3-.52.58-.8.86-.28.28-.57.54-.87.79-.3.25-.6.49-.92.73-.31.23-.64.45-.97.66,0,0-.37.22-.44.27-.2.14-.41.25-.64.32l-.07.02Z"/>
        <path class="cls-2" d="M196.05,107.59c1.61-.54,3.19-.75,4.44-.18,1.88.86,2.69,2.99,4.11,4.36.77.74,1.8,1.2,2.79,1.6,1.06.42,2.19.66,3.33.7,1.76.06,3.57-.38,5.31-.61-1.39,1.91-3.01,3.64-4.61,5.38-.7.76-1.27,1.58-2,2.3-.82.81-1.61,1.66-2.19,2.66-.72,1.23-1.54,3.49-.38,4.65.67.67,1.27,1.33,2.04,1.9.78.57,1.62,1.07,2.43,1.59,1.59,1.02,3.22,2,4.96,2.73,2.37,1,4.89,1.63,7.45,1.84-6.29,5.59-10.52,13.45-11.71,21.78,4.34.82,8.44,2.91,11.65,5.94-3.31,2.21-5.88,5.51-7.21,9.26-.49,1.37-.79,2.98-.02,4.21.81,1.3,2.48,1.7,3.82,2.45,3.33,1.87,4.61,6.35,3.5,10.01-.04.12-.08.24-.12.36-.12.35-.26.69-.41,1.02-.15.33-.32.65-.51.97-.19.31-.39.62-.6.92-.21.3-.44.59-.68.86-.24.28-.49.55-.75.81-.26.26-.54.51-.82.75-.28.24-.57.47-.87.69-.3.22-.61.43-.92.63-.16.1-.32.19-.47.29-.13.09-.27.16-.42.21-.02,0-.03,0-.05.01-.21.06-.44.07-.66.09-.23.02-.46.04-.7.05-.37.02-.74.03-1.12.02-.37,0-.74-.02-1.11-.06-.37-.03-.74-.08-1.1-.14-.36-.06-.72-.13-1.08-.22-.36-.09-.71-.19-1.05-.31-.35-.12-.68-.25-1.02-.41-.33-.15-.66-.32-.97-.5-.32-.18-.63-.39-.92-.6-3.08-2.26-4.74-6.61-3.2-10.11.62-1.4,1.72-2.72,1.59-4.25-.13-1.45-1.33-2.55-2.54-3.36-3.32-2.2-7.35-3.3-11.32-3.08.75-4.35,2.78-8.48,5.76-11.74-5.95-5.95-14.05-9.7-22.43-10.4,1.93-1.7,3.56-3.72,4.86-5.94.96-1.63,1.67-3.39,2.33-5.16.34-.91.71-1.81.99-2.73.28-.91.36-1.8.49-2.74.23-1.62-1.78-2.94-3.09-3.49-1.07-.44-2.21-.66-3.35-.81-1.02-.14-1.97-.45-2.98-.64-2.32-.43-4.66-.84-6.92-1.53,1.53-.86,3.24-1.59,4.62-2.69.89-.72,1.65-1.58,2.25-2.56.56-.91,1.1-1.89,1.28-2.95.32-1.95-.31-4.14.68-5.95.66-1.21,2.05-1.99,3.66-2.52,2.39-.8,5.27-1.07,7.02-1.49.42-.1.85-.2,1.27-.31.4-.17.8-.35,1.2-.52,1.65-.71,4.12-2.22,6.51-3.01h0ZM195.53,106.02c-1.65.55-3.26,1.38-4.69,2.11-.73.37-1.41.72-1.96.96l-.63.27-.44.19-.5.12-.64.15c-.57.14-1.33.27-2.14.41-1.58.27-3.36.58-5.01,1.13-2.29.76-3.79,1.84-4.59,3.3-.83,1.52-.8,3.12-.78,4.54.01.7.02,1.36-.07,1.94-.13.79-.61,1.63-1.06,2.36-.5.81-1.13,1.53-1.88,2.13-.85.69-1.89,1.22-2.99,1.79-.47.24-.94.49-1.4.74l-3.35,1.88,3.67,1.14c2.24.69,4.54,1.11,6.76,1.52l.35.06c.4.07.79.17,1.18.27.59.15,1.21.3,1.88.39.91.12,1.98.3,2.93.7,1.28.54,2.14,1.41,2.1,1.74l-.07.52c-.09.7-.18,1.35-.37,1.97-.19.64-.44,1.27-.69,1.93l-.27.7c-.61,1.62-1.29,3.33-2.21,4.91-1.23,2.1-2.75,3.97-4.53,5.54l-2.89,2.56,3.85.32c7.45.62,14.77,3.83,20.3,8.87-2.61,3.26-4.41,7.24-5.12,11.34l-.35,2.04,2.07-.11c3.63-.2,7.3.8,10.32,2.81,1.13.75,1.76,1.48,1.81,2.13.05.6-.34,1.32-.79,2.15-.22.41-.46.84-.66,1.3-1.78,4.04-.17,9.24,3.73,12.1.34.25.7.48,1.07.7.36.21.74.4,1.12.58.37.17.76.33,1.16.46.39.14.79.25,1.19.35.4.1.8.18,1.21.25.41.07.82.12,1.23.15.41.04.82.06,1.23.06.41,0,.82,0,1.23-.02.25-.01.51-.03.76-.05h.11c.22-.03.53-.05.87-.15h.02s.07-.03.07-.03c.3-.1.58-.24.85-.43.06-.04.12-.07.18-.11.08-.05.16-.1.24-.15.34-.22.68-.45,1.01-.7.33-.24.65-.5.96-.76.31-.27.62-.55.91-.83.29-.29.57-.59.84-.9.27-.31.53-.64.77-.97.24-.34.47-.69.68-1.04.21-.36.41-.74.59-1.11.18-.39.34-.78.48-1.18.05-.14.09-.28.13-.41,1.41-4.64-.43-9.76-4.27-11.93-.44-.25-.88-.45-1.31-.64-.86-.39-1.6-.73-1.92-1.24-.34-.55-.28-1.51.18-2.79,1.22-3.42,3.55-6.42,6.58-8.44l1.72-1.15-1.51-1.42c-3.03-2.86-6.85-4.95-10.9-6,1.41-7.35,5.33-14.31,10.92-19.28l2.89-2.56-3.85-.31c-2.36-.19-4.7-.77-6.95-1.71-1.68-.71-3.26-1.67-4.71-2.6l-.64-.4c-.6-.38-1.18-.74-1.71-1.13-.52-.38-.98-.85-1.47-1.35l-.37-.38c-.23-.23-.07-1.45.64-2.65.53-.89,1.27-1.67,1.93-2.32.48-.47.88-.96,1.27-1.43.25-.31.51-.62.79-.92l.24-.26c1.53-1.66,3.12-3.37,4.5-5.27l2.26-3.11-3.81.51c-.52.07-1.04.16-1.56.24-1.22.2-2.38.4-3.47.36-.96-.03-1.9-.23-2.78-.58-.79-.31-1.68-.7-2.26-1.25-.42-.4-.81-.94-1.22-1.51-.83-1.14-1.77-2.44-3.35-3.16-1.51-.69-3.36-.65-5.65.11h0Z"/>
      </g>
      <g>
        <path class="cls-2" d="M162.17,124.47s-40.3-29.78-40.36-29.82c-.53-.39-.45-.67.21-2.86.13-.43.24-.8.27-.93.05-.45.1-.92.14-1.39.11-1.23.23-2.5.59-3.81.95-3.45,2.55-6.67,4.1-9.78l.37-.76c.31-.63.62-1.24.93-1.83,1.12-2.19,2.18-4.25,2.86-6.79.94-3.55,1.4-7.1,1.72-10.1.27-2.59,1.12-5.15,1.94-7.62.3-.9.6-1.79.86-2.68.15-.5.62-.81,1.86-1.22.98-.33,2.27-.65,3.12-.87.4-.1.7-.18.82-.21l46.49-15.48c.85-.28,2.92-.99,2.92-.99l.34.23c1.35.9,2.11,2.29,2.84,3.63.37.69.73,1.33,1.15,1.9,1.66,2.24,3.63,4.27,5.85,6.04,2.66,2.13,5.61,3.83,8.76,5.05,1.44.56,3.03,1.04,4.86,1.46,1.65.38,2.76,1.23,3.93,2.14.25.19.5.38.76.58l12.37,9.14-14.57,48.62-55.11,18.36ZM200.15,93.14l8.36-27.88-23.41-17.3-32.05,10.68-8.36,27.88,23.41,17.3,32.05-10.68Z"/>
        <path class="cls-2" d="M137.92,45.66c1.44-.48,3.57-.96,3.94-1.08l12.85-4.28c9.75-3.25,19.5-6.5,29.25-9.74,1.46-.49,2.93-.97,4.39-1.46.85-.28,1.7-.57,2.54-.86,1.83,1.22,2.5,3.6,3.79,5.34,1.72,2.31,3.75,4.39,6,6.19,2.71,2.16,5.74,3.92,8.97,5.18,1.62.63,3.28,1.11,4.97,1.5,1.8.41,2.89,1.47,4.39,2.57,3.97,2.93,7.93,5.86,11.9,8.79l-14.28,47.66-54.3,18.09s-39.96-29.52-40.01-29.56c-.1-.08.77-2.75.8-3,.21-1.73.24-3.38.71-5.11,1-3.64,2.74-7.02,4.41-10.39,1.49-3.01,2.97-5.46,3.85-8.77.9-3.37,1.37-6.76,1.74-10.22.36-3.43,1.78-6.85,2.78-10.15.06-.19.6-.43,1.33-.67h0ZM167.96,104.74l32.86-10.95,8.65-28.84-24.22-17.89-32.86,10.95-8.65,28.84,24.22,17.89h0ZM137.39,44.09h0c-1.09.36-2.09.77-2.38,1.76-.26.88-.56,1.76-.85,2.66-.84,2.52-1.7,5.12-1.98,7.8-.32,2.97-.76,6.48-1.69,9.97-.65,2.45-1.64,4.38-2.79,6.62-.31.6-.62,1.21-.94,1.84l-.37.75c-1.57,3.15-3.19,6.41-4.15,9.94-.38,1.38-.5,2.69-.62,3.95-.04.44-.08.88-.13,1.33-.04.16-.14.47-.24.82-.68,2.27-.91,3.04.09,3.77l40.01,29.56.69.51.81-.27,54.3-18.09.81-.27.25-.82,14.28-47.66.33-1.11-.93-.69-6.57-4.86-5.33-3.94c-.26-.19-.51-.38-.75-.57-1.19-.92-2.43-1.87-4.25-2.29-1.78-.41-3.33-.88-4.74-1.43-3.07-1.19-5.94-2.85-8.54-4.93-2.16-1.73-4.08-3.71-5.7-5.89-.39-.52-.73-1.14-1.09-1.8-.74-1.36-1.59-2.9-3.11-3.92l-.68-.45-.77.27c-.84.29-1.68.57-2.53.85l-2.19.73-2.2.73-29.25,9.74-12.85,4.28c-.12.04-.4.11-.76.2-.86.22-2.17.55-3.18.89h0ZM153.72,59.29l31.24-10.41,22.6,16.7-8.07,26.91-31.24,10.41-22.6-16.7,8.07-26.91h0Z"/>
      </g>
      <g>
        <path class="cls-2" d="M341.11,575.57c-2.51.84-5.23-.52-6.06-3.03l-3.6-10.82,13.64-4.54,3.6,10.82c.84,2.51-.52,5.23-3.03,6.06l-4.54,1.51Z"/>
        <path class="cls-2" d="M344.56,558.22l3.34,10.03c.69,2.08-.43,4.33-2.51,5.02l-4.54,1.51c-2.08.69-4.33-.43-5.02-2.51l-3.34-10.03,12.07-4.02h0ZM345.6,556.14l-1.56.52-12.07,4.02-1.56.52.52,1.56,3.34,10.03c.98,2.94,4.17,4.53,7.1,3.55l4.54-1.51c2.94-.98,4.53-4.17,3.55-7.1l-3.34-10.03-.52-1.56h0Z"/>
      </g>
      <g>
        <path class="cls-2" d="M325.15,520.59c-1.92.56-3.73,1.01-5.52,1.37-2.22.46-4.5.84-6.69,1.2-.48.08-1.25.21-1.89-.25-1.07-.77-.67-2.22-.54-2.7,3.98-14.65-1.12-29.1-6.06-43.06-.87-2.45-1.73-4.89-2.54-7.32l-28.97-86.96,11.68-3.89,28.97,86.96c.81,2.42,1.58,4.89,2.36,7.38,4.43,14.14,9.01,28.76,20.98,38.09.39.3,1.57,1.23,1.18,2.48-.23.75-.93,1.11-1.3,1.3-2.02,1.05-4.08,2.11-6.14,3.08-1.65.78-3.39,1.51-5.15,2.17l-.38.14Z"/>
        <path class="cls-2" d="M284.1,380.02l1.54,4.62c3.76,11.28,7.52,22.56,11.28,33.84,5.3,15.91,10.6,31.81,15.9,47.72,5.45,16.34,9.32,34.71,23.62,45.86.51.4,1.1.97.9,1.59-.12.4-.53.63-.9.82-2.02,1.05-4.05,2.1-6.11,3.07-1.7.8-3.42,1.52-5.18,2.17-.02.01-.04.02-.06.03-.02,0-.03.01-.05.02-.04.01-.08.03-.11.04-1.8.52-3.61.98-5.45,1.36-2.23.46-4.48.83-6.73,1.21-.41.07-.87.13-1.21-.12-.53-.38-.4-1.18-.23-1.81,4.75-17.49-3.16-34.52-8.61-50.86-5.3-15.91-10.6-31.81-15.9-47.72-3.76-11.28-7.52-22.56-11.28-33.84l-1.54-4.62,1.26-.42,2.94-.98,3.24-1.08,2.31-.77.37-.12h0ZM285.14,377.94l-1.56.52-.37.12-2.31.77-3.24,1.08-2.94.98-1.26.42-1.56.52.52,1.56,1.54,4.62,11.28,33.84,15.9,47.72c.81,2.43,1.69,4.92,2.54,7.33,4.89,13.85,9.95,28.17,6.04,42.58-.56,2.05.16,3.08.85,3.58.92.66,1.95.49,2.45.41,2.22-.37,4.52-.75,6.79-1.22,1.81-.37,3.63-.82,5.58-1.39l.05-.02.05-.02h.03s.06-.03.06-.03h.03c.07-.03.14-.06.2-.09,1.79-.67,3.55-1.4,5.22-2.19,2.1-.99,4.17-2.06,6.16-3.1.45-.23,1.38-.71,1.71-1.79.26-.82.21-2.07-1.46-3.38-11.77-9.18-16.31-23.67-20.7-37.69-.76-2.44-1.55-4.96-2.36-7.39l-15.9-47.72-11.28-33.84-1.54-4.62-.52-1.56h0Z"/>
      </g>
      <g>
        <path class="cls-2" d="M185.26,48.84l6.33-21.27-6.33,21.27Z"/>
        <rect class="cls-2" x="177.33" y="37.39" width="22.19" height="1.65" transform="translate(98.03 207.89) rotate(-73.42)"/>
      </g>
      <g>
        <path class="cls-2" d="M153.06,58.61l-16.67-12.65,16.67,12.65Z"/>
        <rect class="cls-2" x="143.9" y="41.82" width="1.65" height="20.93" transform="translate(15.59 135.97) rotate(-52.81)"/>
      </g>
      <g>
        <path class="cls-2" d="M145.06,86.38l-23.03,7.61,23.03-7.61Z"/>
        <rect class="cls-2" x="121.42" y="89.37" width="24.26" height="1.65" transform="translate(-21.56 46.48) rotate(-18.29)"/>
      </g>
      <g>
        <path class="cls-2" d="M168.35,103.35l-6.33,21.27,6.33-21.27Z"/>
        <rect class="cls-2" x="154.09" y="113.16" width="22.19" height="1.65" transform="translate(8.8 239.77) rotate(-73.42)"/>
      </g>
      <g>
        <path class="cls-2" d="M199.57,92.94l17.82,13.23-17.82-13.23Z"/>
        <rect class="cls-2" x="207.66" y="88.46" width="1.65" height="22.19" transform="translate(4.29 207.63) rotate(-53.42)"/>
      </g>
      <g>
        <path class="cls-2" d="M207.55,65.71l24.15-8.03-24.15,8.03Z"/>
        <rect class="cls-2" x="206.9" y="60.87" width="25.45" height="1.65" transform="translate(-8.25 72.43) rotate(-18.39)"/>
      </g>
      <g>
        <polygon class="cls-2" points="167.69 83.12 135.09 17.74 174.94 4.46 188.07 76.33 167.69 83.12"/>
        <path class="cls-2" d="M174.29,5.55l12.83,70.23-19.02,6.34-31.85-63.89,38.04-12.67h0ZM175.57,3.38l-1.8.6-38.04,12.67-1.8.6.85,1.7,31.85,63.89.64,1.28,1.36-.45,19.02-6.34,1.36-.45-.26-1.41-12.83-70.23-.34-1.87h0Z"/>
      </g>
      <g>
        <path class="cls-2" d="M173.28,68.32c-.09-.1-8.74-9.75-13.3-23.43-3.99-11.99-3.96-17.19.11-18.54s7.22,2.78,11.21,14.77c4.56,13.68,3.42,26.6,3.41,26.73l-.17,1.87-1.26-1.39Z"/>
        <path class="cls-2" d="M160.35,27.12c2.69-.9,5.61.57,10.17,14.25,4.56,13.68,3.37,26.39,3.37,26.39,0,0-8.57-9.46-13.13-23.14-4.56-13.68-3.11-16.6-.41-17.5h0ZM159.83,25.56c-4.69,1.56-4.87,6.87-.63,19.59,4.61,13.85,13.11,23.33,13.47,23.73l2.52,2.78.35-3.73c.05-.53,1.16-13.22-3.45-27.06-4.24-12.71-7.56-16.86-12.25-15.29h0Z"/>
      </g>
      <g>
        <path class="cls-2" d="M268.49,383.24l-14.14-10.4,5.08-16.81,18.92-6.3,14.14,10.4-5.08,16.81-18.92,6.3ZM280.07,371.22l2.33-7.73-1.83-1.35c-.44-.32-.86-.66-1.29-1-.41-.32-.81-.64-1.23-.95l-2.15-1.59-.13.04c-.12,1.02-.28,2.05-.44,3.05-.08.51-.16,1.02-.24,1.53l-.76,5.11-2.42-2.27c-1.52-1.43-3.03-2.87-4.54-4.3l-.26-.25-.32.11c-.34,1.12-.67,2.23-1,3.35-.35,1.18-.69,2.35-1.05,3.53l-.29.98,6.5,4.78,9.13-3.04Z"/>
        <path class="cls-2" d="M278.2,350.65l13.33,9.81-4.78,15.84-18.11,6.03-13.33-9.81,4.78-15.84,18.11-6.03h0ZM270.79,375.18l9.94-3.31,2.63-8.69c-.77-.56-1.53-1.13-2.3-1.69-.86-.63-1.66-1.31-2.52-1.95-.73-.54-1.46-1.08-2.19-1.62-.1-.07-.2-.15-.3-.22l-1.03.34c-.16,1.68-.48,3.38-.74,5.07-.12.83-.25,1.65-.37,2.48-.02.11-.16,1.07-.16,1.07,0,0-.85-.8-1.27-1.2-1.73-1.62-3.45-3.26-5.16-4.89l-1.2.4c-.73,2.42-1.44,4.86-2.17,7.29-.03.11-.46,1.53-.46,1.53l7.31,5.38h0ZM278.49,348.81l-.81.27-18.11,6.03-.81.27-.25.82-4.78,15.84-.34,1.11.94.69,13.33,9.81.69.51.81-.27,18.11-6.03.81-.27.25-.82,4.78-15.84.34-1.11-.94-.69-13.33-9.81-.69-.51h0ZM265.39,369.16l.13-.42c.36-1.18.71-2.37,1.06-3.55.23-.79.47-1.58.7-2.37,1.35,1.28,2.7,2.57,4.06,3.85l1.27,1.2,2.29,2.16.46-3.12.16-1.07.16-1.07.21-1.41c.08-.51.16-1.01.24-1.52.1-.6.19-1.2.28-1.81l1.13.84c.41.3.81.62,1.21.93.44.34.87.69,1.32,1.02l1.35.99h.01s-2.04,6.77-2.04,6.77l-8.32,2.77-5.69-4.19h0Z"/>
      </g>
      <g>
        <path class="cls-2" d="M272.55,389.53c-2.2.73-4.46.4-5.88-.88-1.04-.93-1.46-2.25-1.16-3.62l.82-3.8,21.6-7.2,2.93,2.54c1.06.92,1.51,2.23,1.24,3.59-.37,1.87-1.97,3.49-4.18,4.22l-15.38,5.13Z"/>
        <path class="cls-2" d="M287.75,374.97l2.58,2.24c2.17,1.88.76,5.28-2.66,6.41l-15.38,5.12c-3.42,1.14-6.58-.74-5.97-3.54l.72-3.34,20.71-6.9h0ZM288.12,373.11l-.89.3-20.71,6.9-.89.3-.2.92-.72,3.34c-.36,1.67.15,3.27,1.42,4.41,1.64,1.47,4.2,1.87,6.69,1.05l15.38-5.12c2.48-.83,4.29-2.68,4.72-4.85.33-1.66-.22-3.26-1.51-4.38l-2.58-2.24-.71-.61h0Z"/>
      </g>
      <g>
        <path class="cls-2" d="M319.01,529.26l-7.87-6.03c-.3-.22-.45-.6-.39-.97.06-.37.32-.68.68-.8l25.51-8.5c.36-.12.75-.03,1.02.23.27.26.38.65.28,1.01l-2.69,9.55-16.55,5.51Z"/>
        <path class="cls-2" d="M337.2,513.74c.15-.05.29.09.25.24l-2.57,9.12-15.72,5.24-7.52-5.76c-.12-.09-.09-.29.06-.34l25.51-8.5h0ZM336.68,512.18l-25.51,8.5c-.65.22-1.12.77-1.23,1.44-.11.67.15,1.35.7,1.77l7.52,5.76.69.53.83-.28,15.72-5.24.83-.28.24-.84,2.57-9.12c.19-.66,0-1.36-.5-1.83s-1.2-.63-1.85-.41h0Z"/>
      </g>
      <g>
        <polygon class="cls-2" points="319.97 542.37 318.79 528.57 335.56 522.98 342.63 534.82 319.97 542.37"/>
        <path class="cls-2" d="M335.19,523.97l6.21,10.39-20.7,6.9-1.03-12.11,15.52-5.17h0ZM335.93,521.99l-1.26.42-15.52,5.17-1.23.41.11,1.29,1.03,12.11.18,2.08,1.99-.66,20.7-6.9,1.95-.65-1.05-1.76-6.21-10.39-.68-1.14h0Z"/>
      </g>
      <g>
        <polygon class="cls-2" points="317.89 543.72 320.53 536.92 339.22 530.69 345.04 534.68 317.89 543.72"/>
        <path class="cls-2" d="M339.09,531.6l4.11,2.82-23.92,7.97,1.87-4.81,17.94-5.98h0ZM339.35,529.78l-.78.26-17.94,5.98-.73.24-.28.72-1.87,4.81-1.27,3.27,3.33-1.11,23.92-7.97,3.15-1.05-2.74-1.87-4.11-2.82-.68-.46h0Z"/>
      </g>
      <g>
        <path class="cls-2" d="M345.06,558.92c-1.67.55-3.36,1.07-5.06,1.6l-1.27.4-1.23.43c-1.67.59-3.34,1.18-5.01,1.75l-.41.14-16.96-12.4,3.03-7.82,1.91-.56c.97-.28,1.95-.57,2.91-.89l16.79-5.59c.96-.32,1.91-.68,2.85-1.03l1.87-.69,7.12,4.44-6.13,20.09-.41.13Z"/>
        <path class="cls-2" d="M344.39,535.17l6.24,3.89s-.11.35-.29.95c-1.18,3.86-5.53,18.13-5.53,18.13-2.09.68-4.21,1.34-6.32,2-2.09.74-4.17,1.49-6.25,2.19,0,0-12.04-8.8-15.3-11.19-.51-.37-.8-.59-.8-.59l2.66-6.86c1.48-.45,2.99-.85,4.45-1.34l8.32-2.77.15-.05,8.32-2.77c1.47-.49,2.91-1.07,4.37-1.6h0ZM344.58,533.35l-.75.27c-.51.19-1.02.38-1.53.57-.92.35-1.87.7-2.8,1.01l-8.32,2.77-.15.05-8.32,2.77c-.93.31-1.9.59-2.85.87-.52.15-1.04.3-1.56.46l-.77.23-.29.75-2.66,6.86-.46,1.18,1.02.75.8.59,15.3,11.19.69.51.81-.27c1.68-.57,3.36-1.17,5.04-1.76l1.23-.44,1.19-.37c1.7-.53,3.41-1.06,5.09-1.61l.81-.27.25-.82,5.53-18.13.29-.95.37-1.21-1.07-.67-6.24-3.89-.68-.43h0Z"/>
      </g>
      <g>
        <g>
          <path class="cls-2" d="M275.42,391.35c4.24,2,9.26,2.18,13.57.46l-13.57-.46Z"/>
          <path class="cls-2" d="M288.41,392.9c-4.3,1.43-9.21,1.15-13.34-.81l.7-1.49c4.01,1.9,8.82,2.06,12.92.44l.61,1.53c-.29.12-.59.22-.88.32Z"/>
        </g>
        <g>
          <path class="cls-2" d="M277.71,398.25c4.24,2,9.26,2.18,13.57.46l-13.57-.46Z"/>
          <path class="cls-2" d="M290.71,399.8c-4.3,1.43-9.22,1.15-13.34-.81l.7-1.49c4.01,1.9,8.85,2.06,12.92.44l.61,1.53c-.29.12-.59.22-.88.32Z"/>
        </g>
        <g>
          <path class="cls-2" d="M280.01,405.14c4.24,2,9.26,2.18,13.57.46l-13.57-.46Z"/>
          <path class="cls-2" d="M293.01,406.7c-4.3,1.43-9.22,1.15-13.34-.81l.7-1.49c4.01,1.9,8.85,2.06,12.92.44l.61,1.53c-.29.12-.59.22-.88.32Z"/>
        </g>
        <g>
          <path class="cls-2" d="M282.31,412.04c4.24,2,9.26,2.18,13.57.46l-13.57-.46Z"/>
          <path class="cls-2" d="M295.3,413.6c-4.3,1.43-9.22,1.15-13.34-.81l.7-1.49c4.01,1.9,8.85,2.06,12.92.44l.61,1.53c-.29.12-.59.22-.88.32Z"/>
        </g>
        <g>
          <path class="cls-2" d="M284.61,418.94c4.24,2,9.26,2.18,13.57.46l-13.57-.46Z"/>
          <path class="cls-2" d="M297.61,420.49c-4.3,1.43-9.22,1.15-13.35-.8l.7-1.49c4.01,1.9,8.84,2.06,12.92.44l.61,1.53c-.29.12-.58.22-.88.32Z"/>
        </g>
        <g>
          <path class="cls-2" d="M286.91,425.84c4.24,2,9.26,2.18,13.57.46l-13.57-.46Z"/>
          <path class="cls-2" d="M299.91,427.39c-4.3,1.43-9.22,1.15-13.35-.8l.7-1.49c4.01,1.9,8.85,2.07,12.92.44l.61,1.53c-.29.12-.58.22-.88.32Z"/>
        </g>
      </g>
      <g>
        <g>
          <path class="cls-2" d="M212.09,203.56c4.3,1.98,9.42,2.12,13.82.38l-13.82-.38Z"/>
          <path class="cls-2" d="M225.32,205.03c-4.38,1.46-9.39,1.21-13.57-.72l.69-1.5c4.08,1.88,9,1.99,13.18.36l.61,1.53c-.3.12-.6.23-.9.33Z"/>
        </g>
        <g>
          <path class="cls-2" d="M214.39,210.46c4.3,1.98,9.42,2.12,13.82.38l-13.82-.38Z"/>
          <path class="cls-2" d="M227.62,211.93c-4.38,1.46-9.38,1.21-13.57-.72l.69-1.5c4.08,1.88,9,1.99,13.18.36l.61,1.53c-.3.12-.6.23-.9.33Z"/>
        </g>
        <g>
          <path class="cls-2" d="M216.69,217.36c4.3,1.98,9.42,2.12,13.82.38l-13.82-.38Z"/>
          <path class="cls-2" d="M229.91,218.83c-4.38,1.46-9.38,1.21-13.57-.72l.69-1.5c4.08,1.88,8.98,2.01,13.18.36l.61,1.53c-.3.12-.6.23-.9.33Z"/>
        </g>
        <g>
          <path class="cls-2" d="M218.99,224.26c4.3,1.98,9.42,2.12,13.82.38l-13.82-.38Z"/>
          <path class="cls-2" d="M232.21,225.73c-4.38,1.46-9.38,1.21-13.57-.72l.69-1.5c4.08,1.88,8.98,2.02,13.18.36l.61,1.53c-.3.12-.6.23-.9.33Z"/>
        </g>
        <g>
          <path class="cls-2" d="M221.28,231.16c4.3,1.98,9.42,2.12,13.82.38l-13.82-.38Z"/>
          <path class="cls-2" d="M234.51,232.63c-4.38,1.46-9.38,1.21-13.57-.72l.69-1.5c4.08,1.88,8.98,2.01,13.18.36l.61,1.53c-.3.12-.6.23-.9.33Z"/>
        </g>
        <g>
          <path class="cls-2" d="M223.58,238.06c4.3,1.98,9.42,2.12,13.82.38l-13.82-.38Z"/>
          <path class="cls-2" d="M236.81,239.53c-4.38,1.46-9.38,1.21-13.57-.72l.69-1.5c4.08,1.88,8.98,2.01,13.18.36l.61,1.53c-.3.12-.6.23-.9.33Z"/>
        </g>
      </g>
      <g>
        <polygon class="cls-2" points="201.44 149.58 205.44 151.58 210.76 140.96 196.12 133.64 188.8 148.27 199.43 153.59 201.44 149.58"/>
        <path class="cls-2" d="M205.81,152.69l-4.01-2-2,4.01-12.1-6.05,8.06-16.11,16.11,8.06-6.05,12.1ZM189.91,147.9l9.15,4.58,2-4.01,4.01,2,4.58-9.15-13.16-6.58-6.58,13.16Z"/>
      </g>
    </g>
    <g id="Staff4">
      <g>
        <path class="cls-2" d="M363.8,75.43c4.48-.04,8.81-2.97,10.51-7.11,1.62,2.5,1.9,5.82.72,8.55-1.18,2.74-6.71,5.35-6.71,5.35,0,0,3.17,2.97,3.34,5.15.29,3.77-1.22,7.65-4,10.22-.92-4.48-3.99-8.46-8.09-10.48,1.74-3.81,3.47-7.56,4.23-11.68Z"/>
        <path class="cls-2" d="M367.14,99.2l-.3-1.45c-.86-4.21-3.79-8-7.64-9.9l-.72-.36.41-.9c1.73-3.79,3.36-7.37,4.09-11.32l.12-.68h.69c4.16-.04,8.17-2.75,9.75-6.6l.6-1.47.86,1.33c1.78,2.75,2.08,6.33.79,9.33-.98,2.27-4.33,4.31-6.08,5.25,1.03,1.11,2.64,3.11,2.78,4.86.32,4.05-1.27,8.13-4.26,10.89l-1.08,1ZM360.66,86.74c3.5,1.97,6.23,5.36,7.43,9.19,1.94-2.34,2.98-5.47,2.74-8.49-.12-1.52-2.32-3.89-3.08-4.61l-.89-.83,1.1-.52c1.46-.69,5.44-2.93,6.3-4.93.86-1.99.86-4.37.06-6.39-2.05,3.44-5.84,5.81-9.83,6.09-.78,3.7-2.31,7.16-3.83,10.51Z"/>
      </g>
      <g>
        <rect class="cls-2" x="299.82" y="94.05" width="7.33" height="75.17" transform="translate(62.99 -95.5) rotate(19.91)"/>
        <path class="cls-2" d="M294.63,169.29l-8.46-3.06,26.17-72.24,8.46,3.06-26.17,72.24ZM288.3,165.23l5.33,1.93,25.04-69.11-5.33-1.93-25.04,69.11Z"/>
      </g>
      <g>
        <path class="cls-2" d="M358.13,24.63c-2.85-.29-5.69.34-8.42,1.08-1.54.42-2.22.73-2.72-1.04-.02-.06-.03-.12-.05-.18-.63-2.59.83-4.92,2.72-6.54,1.26-1.08,3.2-1.09,4.77-.86.79.12,1.58.23,2.37.35-.93-2.28-1.83-4.56-2.76-6.83-.2-.49-.4-.98-.59-1.48-.19-.49-.38-.99-.57-1.48-.19-.49-.37-.99-.56-1.48-.18-.49-.37-.99-.55-1.48-.19-.49-.37-.99-.56-1.48-.17-.45-.36-.91-.53-1.36-.03-.08-.06-.16-.09-.23-.31.17-.62.34-.92.5-.46.26-.92.51-1.38.77-.46.26-.92.52-1.38.78-.46.26-.92.52-1.38.79-.46.26-.92.52-1.38.78-.46.26-.93.52-1.4.77-.19.11-.39.21-.59.31-2.17,1.15-4.32,2.33-6.5,3.48.68.42,1.36.83,2.04,1.25,1.35.83,2.84,2.08,3.12,3.71.41,2.45.04,5.17-2.1,6.76-.05.04-.1.07-.15.11-1.52,1.04-1.84.37-2.75-.94-1.63-2.32-3.4-4.62-5.78-6.22-2.81-1.89-6.67-2.61-9.57-.86,2.91,1.4,4.88,4.18,5.66,7.26.5,1.96.27,4.23,1.05,6.1.92,2.22,3.19,2.88,5.26,3.69,2.15.85,4.3,1.7,6.45,2.56.07.02.14.04.2.07.07.03.13.05.2.07,2.2.73,4.39,1.45,6.59,2.18,2.12.7,4.28,1.64,6.41.53,1.8-.94,3.08-2.83,4.72-4.01,2.58-1.86,5.87-2.74,9-1.95-1.1-3.2-4.53-5.13-7.9-5.47Z"/>
        <path class="cls-2" d="M338.61,33.99c-2.15-.86-4.3-1.71-6.45-2.56l-.63-.24c-1.94-.74-4.13-1.58-5.1-3.9-.5-1.2-.62-2.51-.74-3.77-.08-.87-.16-1.69-.35-2.45-.78-3.05-2.68-5.5-5.22-6.72l-1.39-.67,1.32-.8c2.94-1.77,7.05-1.43,10.46.88,2.6,1.75,4.46,4.24,5.99,6.44l.16.23c.24.35.61.85.71.86,0,0,.17.02.74-.36,2.27-1.68,2.15-4.5,1.89-6.05-.23-1.35-1.61-2.46-2.73-3.14l-3.28-2.01,1.29-.68c1.14-.6,2.27-1.21,3.4-1.82,1.03-.55,2.06-1.11,3.09-1.66l.58-.31c.46-.25.92-.5,1.38-.76l4.13-2.35c.46-.26.93-.52,1.39-.78l1.75-.95,3.21,8.41c.19.49.38.98.58,1.46.44,1.08.88,2.17,1.31,3.25.48,1.19.96,2.39,1.45,3.58l.55,1.35-3.81-.56c-1.3-.19-3.07-.23-4.11.66-1.19,1.02-3.08,3.11-2.46,5.71.22.8.37.9.37.9,0,0,0,0,0,0,.14.05.69-.1,1.09-.21l.27-.08c2.58-.7,5.61-1.42,8.72-1.1h0c4.1.42,7.48,2.78,8.6,6.03l.5,1.45-1.49-.38c-2.73-.69-5.76-.03-8.31,1.82-.63.46-1.22,1.04-1.84,1.66-.9.89-1.82,1.82-2.98,2.42-2.23,1.16-4.45.4-6.41-.27l-7.23-2.39s-.12-.04-.23-.08l-.22-.08ZM322.31,13.7c2.24,1.57,3.9,4.03,4.65,6.95.23.89.31,1.81.4,2.71.11,1.19.22,2.31.62,3.28.69,1.66,2.37,2.31,4.16,2.99l.65.25c2.15.85,4.3,1.7,6.45,2.56l-.11.84.35-.76.11.04,7.24,2.4c1.81.62,3.51,1.2,5.11.37.93-.49,1.73-1.28,2.58-2.12.64-.64,1.3-1.29,2.04-1.83,2.45-1.77,5.3-2.6,8.02-2.36-1.43-2.13-4.14-3.32-6.52-3.56-2.55-.26-5.09.23-8.12,1.05l-.26.07c-1.3.36-2.78.77-3.47-1.69l-.05-.2c-.62-2.56.44-5.18,2.99-7.36,1.22-1.05,3.05-1.4,5.43-1.05l.93.14c-.3-.75-.6-1.49-.9-2.24-.43-1.08-.87-2.16-1.31-3.24-.2-.49-.4-.99-.59-1.49l-2.52-6.65-.09.05c-.46.25-.92.51-1.38.77l-4.14,2.35c-.47.26-.93.52-1.4.77l-.59.32c-1.03.55-2.06,1.1-3.08,1.65-.71.38-1.42.76-2.13,1.14l.8.49c2.06,1.26,3.24,2.7,3.5,4.29.55,3.31-.3,6-2.42,7.57l-.18.13c-2.1,1.44-2.98.19-3.75-.93l-.16-.23c-1.8-2.57-3.44-4.58-5.56-6.01-1.98-1.33-4.83-2.17-7.29-1.44Z"/>
      </g>
      <g>
        <path class="cls-2" d="M293.17,49.84c-3.42-2.9-4.87-7.92-3.51-12.19-2.85.88-5.18,3.25-6.03,6.11-.85,2.86,1.72,8.41,1.72,8.41,0,0-4.34.25-5.86,1.81-2.64,2.71-3.96,6.65-3.47,10.41,3.57-2.85,8.48-3.94,12.92-2.87,1.1-4.04,2.18-8.03,4.24-11.68Z"/>
        <path class="cls-2" d="M275.38,65.95l-.19-1.46c-.52-4.04.86-8.18,3.7-11.09,1.22-1.25,3.74-1.76,5.25-1.95-.74-1.85-2.01-5.56-1.31-7.93.93-3.14,3.45-5.69,6.58-6.66l1.52-.47-.48,1.51c-1.25,3.97.09,8.62,3.26,11.31l.52.44-.34.6c-1.97,3.5-3.01,7.3-4.11,11.31l-.26.95-.78-.19c-4.17-1.01-8.85.03-12.21,2.71l-1.15.92ZM288.48,39.04c-1.91,1.04-3.44,2.87-4.05,4.94-.62,2.1,1,6.36,1.68,7.82l.51,1.11-1.22.07c-1.12.07-4.25.47-5.32,1.57-2.12,2.17-3.33,5.24-3.33,8.28,3.38-2.17,7.65-3.03,11.6-2.3.97-3.55,2.01-7.18,3.79-10.52-2.89-2.77-4.28-7.02-3.65-10.97Z"/>
      </g>
      <g>
        <path class="cls-2" d="M339.65,109.18c1.46.23,3.04.07,4.28-.75,1.47-.98,2.24-2.71,2.7-4.4.48-1.75.67-3.76-.35-5.25-.72-1.04-1.94-1.66-3.19-1.86s-2.53-.02-3.77.26c-2.01.46-4,1.23-5.51,2.64-5.17,4.85,1.03,8.6,5.84,9.37Z"/>
        <path class="cls-2" d="M336.72,109.28c-2.53-.92-4.87-2.51-5.52-4.65-.38-1.25-.34-3.2,2.04-5.42,1.42-1.33,3.35-2.26,5.89-2.84,1.02-.23,2.55-.51,4.08-.27,1.59.26,2.95,1.06,3.75,2.21.99,1.45,1.15,3.44.47,5.94-.64,2.35-1.64,3.94-3.04,4.88-1.3.86-3.03,1.18-4.87.88h0c-.91-.15-1.86-.39-2.8-.73ZM343.83,97.96c-.28-.1-.57-.18-.88-.23-.96-.15-2.03-.08-3.45.25-2.25.51-3.92,1.31-5.12,2.44-1.4,1.32-1.94,2.57-1.58,3.72.65,2.12,4.09,3.76,6.99,4.22h0c1.43.23,2.74,0,3.69-.63,1.06-.7,1.83-1.99,2.36-3.93.55-2,.47-3.53-.24-4.56-.39-.57-1.01-1.02-1.76-1.29Z"/>
      </g>
      <g>
        <path class="cls-2" d="M290.2,91.32c-1.29-.73-2.42-1.85-2.87-3.27-.53-1.68-.05-3.51.65-5.13.72-1.66,1.83-3.35,3.56-3.87,1.21-.37,2.56-.08,3.66.54,1.1.63,1.99,1.57,2.78,2.56,1.28,1.61,2.35,3.47,2.64,5.51,1,7.02-6.18,6.07-10.42,3.66Z"/>
        <path class="cls-2" d="M292.14,93.12c-.84-.3-1.64-.67-2.36-1.08h0c-1.62-.92-2.77-2.25-3.25-3.74-.51-1.61-.29-3.48.68-5.71,1.03-2.37,2.4-3.83,4.08-4.34,1.34-.4,2.91-.18,4.31.62,1.33.76,2.31,1.87,3.02,2.76,1.62,2.04,2.54,3.97,2.81,5.9.46,3.22-.73,4.77-1.81,5.5-1.92,1.3-4.88,1.02-7.49.08ZM290.61,90.59c2.56,1.45,6.26,2.33,8.1,1.08,1-.68,1.37-1.99,1.1-3.89-.23-1.63-1.04-3.3-2.47-5.11-.91-1.15-1.69-1.87-2.54-2.35-1.01-.57-2.1-.74-3.01-.47-1.19.36-2.21,1.5-3.04,3.41-.8,1.85-1,3.33-.62,4.54.35,1.09,1.23,2.08,2.48,2.79h0Z"/>
      </g>
      <g>
        <path class="cls-2" d="M292.77,179.78c1.18-3.24,2.35-6.49,3.53-9.73,2.12-2.55,4.25-5.1,6.37-7.65,6.78-8.15,13.78-16.1,20.27-24.49,3.32-4.29,6.71-8.51,8.58-13.67,5-13.8-.98-28.63-13.35-33.11s-26.46,3.07-31.46,16.88c-2.04,5.62-1.91,11.56-2.14,17.46-.38,10.1-.16,20.2-.17,30.32,0,3.34,0,6.68,0,10.02-1.17,3.23-2.34,6.45-3.51,9.68-3.75,10.36-7.51,20.72-11.26,31.08-2.94,8.12-5.88,16.24-8.82,24.36-.36.35-.72.69-1.08,1.04-.46.44-.91.88-1.37,1.32l-1.37,1.32c-.45.44-.9.87-1.35,1.31-.44.42-.88.85-1.32,1.27-.42.41-.85.82-1.27,1.23-.4.39-.8.78-1.21,1.16-.38.36-.75.72-1.13,1.09-.34.33-.69.66-1.03.99-.3.29-.61.59-.91.88-.26.25-.52.5-.78.76-.21.21-.43.41-.64.62-.16.15-.32.31-.48.46l-.3.29-.1.1c2.57-.28,4.95-.47,7.54-.18.59.07,1.18.16,1.76.26l-2.61,7.2c-6.6,18.22-13.2,36.44-19.8,54.66l-1.19,3.29c-.6-.33-1.19-.67-1.77-1.03-2.21-1.39-3.95-3.02-5.78-4.84,0,.05.01.09.02.14.02.14.04.27.05.41.03.22.06.44.09.66.04.29.08.59.11.88.05.36.09.72.14,1.08.06.42.11.84.16,1.26.06.47.12.94.19,1.42.07.52.14,1.03.2,1.55.07.55.14,1.11.22,1.66.08.58.15,1.17.23,1.75.08.61.16,1.21.24,1.82.08.62.16,1.24.24,1.87.08.63.16,1.26.25,1.89.08.63.16,1.26.25,1.89.06.45.12.91.18,1.36-5.03,13.88-10.06,27.77-15.09,41.65-6.95,19.18-13.9,38.36-20.84,57.53-6.18,17.07-12.37,34.13-18.55,51.2-8.33,23-15.06,46.92-30.62,66.7-.66.84-1.34,1.68-2.04,2.5-1.54,1.82-3.23,4.07-2.17,6.37.91,1.96,3.41,2.99,5.65,3.78,2.12.75,4.23,1.5,6.35,2.25,2.11.78,4.21,1.56,6.32,2.33,2.23.82,4.8,1.64,6.76.71,2.29-1.09,2.43-3.89,2.41-6.28,0-1.08,0-2.15.04-3.23.72-25.16,10.87-47.84,19.21-70.84,6.18-17.07,12.37-34.13,18.55-51.2,6.95-19.18,13.9-38.36,20.84-57.53,5.03-13.9,10.07-27.79,15.1-41.69.02-.02.03-.03.05-.05.44-.44.88-.88,1.31-1.32.44-.44.88-.89,1.33-1.33.44-.44.88-.89,1.32-1.33.43-.44.87-.88,1.3-1.31.42-.43.85-.85,1.27-1.28.41-.41.82-.82,1.22-1.23.39-.39.77-.78,1.16-1.17.36-.36.72-.73,1.08-1.09.33-.33.66-.66.99-.99.29-.29.59-.59.88-.88.25-.25.5-.51.75-.76.2-.21.41-.41.61-.62.15-.15.31-.31.46-.46.1-.1.19-.19.29-.29.03-.04.07-.07.1-.11-2.56.34-4.94.58-7.53.34-.5-.05-1-.12-1.5-.18l1.06-2.93c6.6-18.22,13.2-36.44,19.8-54.66l2.61-7.2c.51.3,1.02.61,1.52.93,2.18,1.43,3.88,3.11,5.67,4.97,0-.05-.01-.1-.02-.15-.01-.14-.03-.27-.04-.41-.02-.22-.05-.43-.07-.65-.03-.29-.06-.58-.09-.87-.04-.35-.08-.71-.12-1.06-.04-.41-.09-.83-.13-1.24-.05-.46-.1-.93-.15-1.39-.06-.51-.11-1.02-.17-1.52-.06-.55-.12-1.09-.18-1.64-.06-.57-.12-1.15-.19-1.73-.07-.6-.13-1.2-.2-1.79-.07-.61-.13-1.23-.2-1.84-.07-.62-.14-1.24-.2-1.87-.07-.62-.14-1.25-.2-1.87-.06-.6-.13-1.19-.19-1.79,2.94-8.12,5.88-16.24,8.82-24.36,3.75-10.36,7.51-20.72,11.26-31.08ZM291.72,119.49c1.12-1.69,5.31-1.78,5.31-1.78,0,0-1.37-1.9-2.33-2.55-.67-.45-1.43-.75-2.16-1.09-.64-.3-1.17-.53-1.5-1.22-.25-.53-.27-1.06-.2-1.59.15-.53.3-1.05.49-1.57.25-.68.52-1.33.82-1.97,0-.02.02-.04.03-.06.17-.36.36-.7.55-1.04.24-.45.5-.9.77-1.33.15-.24.3-.48.46-.71.3-.44.62-.87.95-1.29.15-.19.3-.39.46-.58.4-.48.83-.94,1.27-1.38.08-.08.15-.17.23-.25.53-.52,1.09-1.01,1.67-1.47.15-.12.31-.23.47-.34.44-.33.88-.64,1.34-.93.21-.13.43-.26.65-.39.43-.25.87-.49,1.32-.71.24-.12.49-.24.74-.35.26-.12.53-.22.8-.32.28-.11.56-.21.85-.31.33-.11.66-.21.99-.3.21-.06.43-.11.64-.16.4-.09.8-.18,1.2-.24.15-.02.29-.04.44-.06.45-.06.91-.12,1.36-.14.11,0,.22,0,.33-.01.48-.02.95-.03,1.43-.01.12,0,.24.02.36.02.46.03.92.06,1.37.12.21.03.42.08.63.11.37.06.73.12,1.1.21.58.14,1.16.31,1.74.52s1.13.45,1.67.71c.34.16.66.35.98.54.18.11.37.2.55.31.39.24.76.51,1.13.78.1.07.2.14.29.21.38.29.74.6,1.09.93.08.08.17.15.25.22.33.31.65.65.95.98.1.11.2.22.3.33.27.31.52.63.77.96.13.18.26.36.39.54.2.28.39.57.57.86.16.26.31.52.46.78.14.25.28.5.4.76.12.24.23.49.34.74.2.46.39.92.56,1.39.09.24.17.47.25.71.17.52.31,1.04.43,1.57.04.19.1.37.14.56.15.73.27,1.46.35,2.2.01.11.01.23.02.34.05.62.09,1.25.09,1.87,0,.25-.02.49-.02.74-.02.53-.05,1.07-.1,1.6-.03.28-.06.56-.1.84-.07.51-.16,1.01-.27,1.51-.08.38-.15.77-.25,1.15,0,.02-.01.04-.02.06-.18.68-.39,1.36-.64,2.04-.19.52-.41,1.02-.63,1.52-.28.45-.63.85-1.17,1.09-.69.32-1.25.15-1.93-.02-.77-.2-1.56-.46-2.35-.54-1.16-.12-3.42.46-3.42.46,0,0,3.16,2.75,2.94,4.77-.21,1.89-1.35,3.28-2.83,4.32-1.37.82-2.8,1.49-4.29,1.96-.08.02-.16.05-.25.07-.48.14-.97.26-1.45.37-.1.02-.19.05-.29.07-.52.1-1.04.17-1.56.23-.22.02-.44.04-.66.05-.32.02-.65.03-.97.04-.24,0-.49,0-.73,0-.49-.01-.98-.04-1.47-.1-.2-.02-.39-.06-.59-.09-.38-.06-.75-.12-1.13-.2-.19-.04-.37-.08-.56-.13-.54-.14-1.08-.29-1.61-.48s-1.05-.42-1.55-.66c-.17-.08-.34-.17-.51-.26-.34-.18-.67-.37-.99-.56-.17-.1-.34-.2-.51-.31-.41-.27-.81-.56-1.2-.87-.19-.15-.37-.31-.56-.47-.25-.21-.49-.43-.72-.65-.16-.15-.32-.3-.47-.46-.37-.38-.72-.77-1.05-1.17-.06-.08-.12-.16-.18-.24-.31-.39-.6-.8-.88-1.21-.05-.07-.09-.14-.14-.21-.84-1.31-1.52-2.74-2.04-4.25-.47-1.74-.45-3.54.6-5.13ZM289.04,142.27c-.09-3.23.3-6.58.11-9.84,2.6,3.93,6.3,7.03,10.9,8.69s9.4,1.66,13.9.31c-2.23,2.39-4.07,5.2-6.2,7.61-2.82,3.19-5.63,6.38-8.45,9.57-1.42,1.6-3.54,4.84-6.02,5.12-.44.05-.9-.03-1.37-.19-.46-.17-.86-.4-1.17-.73-1.72-1.81-1.28-5.65-1.34-7.79-.12-4.25-.24-8.51-.36-12.76Z"/>
        <path class="cls-2" d="M156.21,558.93c-.11-.04-.21-.08-.32-.12l-6.32-2.33-6.3-2.24c-2.44-.89-5.13-1.98-6.16-4.23-1.35-2.94,1.02-5.74,2.29-7.25.69-.82,1.36-1.64,2.02-2.48,13.02-16.54,19.93-36.35,26.62-55.51,1.28-3.66,2.56-7.32,3.87-10.96l54.41-150.19-2.84-21.71,1.71,1.58c1.64,1.63,3.42,3.34,5.63,4.73.29.18.58.36.88.53l22.92-63.27c-.24-.04-.49-.07-.73-.09-2.59-.29-4.96-.08-7.35.18l-2.42.27,15.95-15.39,23.47-64.79v-9.87c.01-2.79,0-5.58-.02-8.37-.04-7.2-.08-14.64.2-21.98.03-.8.05-1.61.08-2.41.15-5.07.31-10.32,2.11-15.29,5.15-14.21,19.74-22.01,32.53-17.38s19,19.96,13.85,34.18c-1.81,4.99-5.03,9.15-8.15,13.18l-.56.72c-4.55,5.88-9.42,11.63-14.13,17.2-2.06,2.43-4.12,4.86-6.16,7.31l-6.28,7.54-23.49,64.85,2.37,21.88-1.66-1.6c-1.67-1.74-3.35-3.41-5.53-4.85-.21-.14-.41-.27-.62-.4l-22.78,62.87c.15.02.3.03.44.05,2.6.24,4.96-.03,7.35-.34l2.47-.32-15.77,15.83-54.43,150.25c-1.32,3.64-2.68,7.26-4.04,10.89-7.14,19-14.51,38.64-15.11,59.68-.03,1.07-.04,2.13-.04,3.2.01,1.98.03,5.65-2.89,7.04-2.14,1.02-4.75.28-7.08-.57ZM225.74,306.33l2.28,17.47-54.55,150.57c-1.32,3.63-2.59,7.28-3.87,10.94-6.73,19.29-13.69,39.23-26.88,55.99-.67.85-1.36,1.69-2.06,2.52-1.5,1.78-2.89,3.66-2.05,5.49.77,1.67,3.06,2.58,5.17,3.35l6.35,2.25,6.29,2.32c2.09.75,4.5,1.54,6.15.76,1.81-.86,1.95-3.2,1.94-5.53,0-1.09,0-2.17.04-3.25.61-21.32,8.04-41.1,15.22-60.22,1.36-3.63,2.72-7.25,4.04-10.88l54.56-150.61,12.58-12.66c-1.69.17-3.47.24-5.34.07-.48-.04-.97-.11-1.45-.18l-1.02-.14.26-.98,23.81-65.72.86.5c.53.31,1.05.62,1.56.96,1.57,1.03,2.91,2.2,4.13,3.39l-1.92-17.63,23.82-65.6,6.37-7.65c2.04-2.45,4.11-4.89,6.17-7.32,4.7-5.55,9.56-11.29,14.08-17.14l.56-.72c3.18-4.1,6.18-7.97,7.9-12.72,4.84-13.35-.93-27.73-12.86-32.05s-25.56,3.03-30.4,16.38c-1.71,4.73-1.86,9.84-2.01,14.78-.02.81-.05,1.62-.08,2.43-.28,7.3-.24,14.72-.2,21.91.02,2.79.03,5.58.03,8.38l-.06,10.3-23.65,65.29-12.76,12.31c1.7-.13,3.47-.16,5.34.05.61.07,1.21.16,1.81.26l.98.16-24.27,66.99-.85-.46c-.62-.33-1.22-.69-1.81-1.06-1.59-1-2.96-2.14-4.2-3.29ZM291.64,164.33c-.62-.23-1.12-.54-1.5-.94-1.64-1.72-1.6-4.8-1.57-7.05,0-.47.01-.9,0-1.28l-.36-12.76c-.04-1.49.02-3.03.08-4.51.07-1.75.14-3.56.04-5.31l-.17-3.07,1.7,2.57c2.59,3.93,6.22,6.82,10.49,8.37s8.88,1.64,13.38.3l2.94-.88-2.09,2.24c-1.19,1.27-2.29,2.7-3.35,4.08-.91,1.18-1.84,2.39-2.84,3.51l-8.45,9.57c-.25.29-.53.63-.83.99-1.42,1.74-3.36,4.13-5.72,4.4-.55.06-1.12-.01-1.74-.23ZM289.87,142.25l.36,12.76c.01.4,0,.86,0,1.35-.03,1.96-.06,4.65,1.11,5.88.4.42,1.25.74,1.84.67,1.69-.19,3.38-2.28,4.62-3.8.31-.39.6-.74.87-1.04l8.45-9.57c.95-1.08,1.87-2.27,2.76-3.43.57-.74,1.15-1.49,1.74-2.22-8.06,1.49-16.38-1.54-21.6-7.84-.01.95-.05,1.91-.09,2.84-.06,1.46-.11,2.96-.08,4.4h0ZM301.64,136.73c-.56-.2-1.1-.44-1.63-.69-.18-.09-.36-.18-.54-.27-.36-.19-.7-.39-1.04-.59l-.18-.11c-.12-.07-.23-.14-.34-.21-.43-.29-.85-.59-1.26-.91-.18-.14-.35-.29-.52-.44-.32-.28-.57-.5-.82-.74-.22-.21-.36-.35-.49-.48-.38-.4-.75-.8-1.1-1.23l-.12-.16c-.39-.5-.7-.92-.98-1.36l-.14-.22c-.86-1.33-1.57-2.82-2.13-4.43-.62-2.28-.38-4.23.69-5.86h0c.86-1.3,2.92-1.81,4.39-2.02-.4-.47-.84-.93-1.19-1.16-.45-.3-.96-.53-1.51-.78l-.54-.25c-.73-.34-1.46-.69-1.9-1.62-.29-.61-.38-1.29-.27-2.06.18-.66.34-1.2.53-1.74.25-.7.54-1.38.85-2.04.16-.33.3-.59.44-.85l.16-.29c.25-.47.51-.93.79-1.38.16-.25.32-.5.48-.74.31-.46.64-.9.98-1.34l.14-.18c.11-.14.22-.29.34-.42.42-.5.86-.98,1.32-1.44l.24-.25c.53-.52,1.12-1.03,1.74-1.52.1-.08.2-.15.31-.22l.18-.13c.45-.34.92-.67,1.4-.97.21-.13.43-.26.64-.38.48-.28.94-.53,1.41-.76.35-.17.55-.27.77-.36.27-.12.55-.23.83-.34.29-.11.59-.22.89-.32.34-.11.68-.22,1.03-.31.23-.06.45-.12.67-.17.42-.1.84-.19,1.26-.26l.35-.05c.58-.08,1.06-.14,1.53-.17h.25c.59-.04,1.09-.04,1.59-.03h.24c.62.05,1.1.09,1.58.15.15.02.3.05.45.08l.21.04c.47.08.81.14,1.15.22,1.23.3,2.45.75,3.58,1.3.31.15.61.33.91.5l.31.17c.13.07.26.15.39.22.41.26.8.54,1.19.82l.3.22c.4.31.77.63,1.14.97l.26.24c.35.33.68.67,1,1.03l.31.35c.28.32.54.66.8,1,.14.19.27.37.41.56.21.3.4.6.59.9.16.27.32.54.47.81.15.26.29.52.42.79.1.21.2.42.29.63.27.61.47,1.09.65,1.58.11.3.19.52.26.74.17.54.32,1.08.45,1.63l.05.22c.03.12.06.24.09.37.16.78.28,1.54.36,2.28v.23c.08.77.11,1.42.11,2.06,0,.18,0,.36-.01.54v.23c-.03.55-.06,1.1-.11,1.66-.03.29-.07.58-.11.87-.07.53-.17,1.05-.27,1.57l-.07.32c-.06.29-.12.58-.19.87-.2.77-.42,1.47-.67,2.17-.2.54-.42,1.06-.65,1.58-.46.76-.96,1.22-1.58,1.51-.93.43-1.71.23-2.4.05l-.66-.18c-.58-.16-1.12-.31-1.66-.37-.39-.04-1.03.03-1.66.13,1,1.1,2.25,2.82,2.08,4.36-.22,1.93-1.29,3.59-3.18,4.91-1.51.91-3.02,1.6-4.52,2.07l-.26.08c-.5.15-1.01.27-1.52.38l-.31.07c-.54.11-1.08.18-1.63.24-.21.02-.43.04-.64.05-.39.03-.73.04-1.07.04-.32,0-.54,0-.77,0-.51-.01-1.03-.05-1.54-.11-.14-.02-.27-.04-.41-.06l-.21-.03c-.39-.06-.79-.13-1.18-.21-.2-.04-.39-.09-.58-.13-.57-.15-1.14-.31-1.7-.51ZM295.01,130.01c.32.39.65.76,1,1.12.12.12.24.24.37.36.31.29.54.5.77.7.22.19.37.32.53.45.37.29.74.57,1.14.82l.49.29c.31.19.62.37.94.54l.49.25c.95.45,1.98.83,3.01,1.09l.53.12c.36.08.71.14,1.07.19l.56.09c.46.05.93.08,1.4.09.2,0,.4,0,.59,0,.41,0,.72-.02,1.03-.04.25-.02.44-.03.63-.05.5-.05,1-.12,1.49-.22l.28-.06c.46-.1.93-.21,1.39-.35l.24-.07c1.37-.43,2.75-1.06,4.1-1.88,1.46-1.02,2.27-2.24,2.43-3.7.14-1.2-1.73-3.24-2.65-4.05l-1.2-1.04,1.53-.39c.25-.06,2.45-.61,3.71-.48.67.07,1.31.25,1.93.42l.55.15c.71.18,1,.25,1.38.07.32-.15.57-.39.81-.78.16-.38.37-.86.56-1.37.24-.65.44-1.31.61-1.97.08-.32.14-.58.19-.84l.07-.34c.1-.48.19-.97.26-1.46.04-.27.07-.54.1-.81.05-.51.08-1.02.1-1.54v-.25c.02-.15.02-.31.02-.47,0-.6-.03-1.2-.08-1.8v-.19c-.09-.82-.2-1.53-.35-2.25l-.14-.54c-.12-.51-.25-1.01-.41-1.51-.06-.2-.13-.39-.21-.59-.2-.54-.38-.99-.57-1.42-.15-.33-.23-.52-.33-.71-.12-.25-.25-.49-.39-.72-.14-.25-.28-.5-.44-.75-.17-.28-.35-.56-.54-.82-.12-.17-.25-.34-.37-.51-.24-.31-.48-.62-.73-.91l-.21-.23c-.37-.41-.67-.72-.99-1.02l-.24-.22c-.33-.3-.68-.6-1.03-.88l-.28-.2c-.35-.26-.71-.51-1.08-.75-.1-.06-.21-.12-.31-.18l-.21-.12c-.39-.22-.65-.38-.93-.52-1.02-.5-2.13-.9-3.24-1.18-.3-.07-.6-.12-.91-.18l-.38-.07c-.12-.02-.24-.05-.36-.06-.43-.06-.87-.09-1.3-.12l-.34-.02c-.45-.02-.91,0-1.36.01h-.31c-.44.04-.88.09-1.31.15l-.42.06c-.39.06-.77.15-1.16.23-.2.05-.41.1-.62.16-.31.09-.63.18-.94.29-.28.09-.55.19-.81.29-.26.1-.51.2-.76.31-.19.08-.38.18-.56.27-.57.28-.99.5-1.4.75-.23.13-.43.25-.62.37-.44.28-.87.58-1.29.89l-.45.33c-.57.46-1.12.93-1.61,1.41l-.22.24c-.43.43-.84.87-1.22,1.33-.1.12-.2.24-.29.37l-.15.19c-.32.41-.63.82-.91,1.25-.15.23-.3.46-.45.69-.26.42-.5.85-.74,1.28l-.16.3c-.13.23-.25.46-.37.7-.32.67-.58,1.31-.82,1.96-.18.5-.33,1.01-.47,1.52-.04.34,0,.68.15,1,.18.37.44.51,1.02.79l.6.28c.58.26,1.19.54,1.75.92,1.06.71,2.39,2.54,2.54,2.75l.93,1.28-1.58.04c-1.23.03-3.97.41-4.63,1.41h0c-.81,1.23-.97,2.68-.49,4.45.5,1.44,1.16,2.81,1.93,4.02l.13.19c.27.41.55.8.85,1.17l-.47.75.65-.52Z"/>
      </g>
      <g>
        <g>
          <circle class="cls-2" cx="326.91" cy="66.98" r="39.66"/>
          <path class="cls-2" d="M313.12,105.06c-20.99-7.61-31.89-30.87-24.28-51.87,7.61-20.99,30.87-31.89,51.87-24.28,20.99,7.61,31.89,30.87,24.28,51.87s-30.87,31.89-51.87,24.28ZM340.14,30.47c-20.13-7.29-42.44,3.15-49.74,23.28s3.15,42.44,23.28,49.74c20.13,7.29,42.44-3.15,49.74-23.28,7.29-20.13-3.15-42.45-23.28-49.74Z"/>
        </g>
        <g>
          <circle class="cls-2" cx="326.91" cy="66.98" r="31.31" transform="translate(222.02 383.77) rotate(-83.26)"/>
          <path class="cls-2" d="M315.96,97.2c-16.67-6.04-25.31-24.51-19.27-41.17,6.04-16.66,24.51-25.31,41.17-19.27,16.67,6.04,25.31,24.51,19.27,41.17s-24.51,25.31-41.17,19.27ZM337.29,38.32c-15.8-5.73-33.32,2.47-39.04,18.28-5.73,15.8,2.47,33.32,18.28,39.04,15.8,5.73,33.32-2.47,39.04-18.28,5.73-15.8-2.47-33.32-18.28-39.04Z"/>
        </g>
      </g>
      <g>
        <circle class="cls-2" cx="150.26" cy="554.87" r="16.5" transform="translate(-355.21 281.08) rotate(-46.41)"/>
        <path class="cls-2" d="M144.35,571.16c-8.99-3.26-13.65-13.21-10.39-22.2s13.21-13.65,22.2-10.39,13.65,13.21,10.39,22.2-13.21,13.65-22.2,10.39ZM155.59,540.13c-8.12-2.94-17.13,1.27-20.07,9.39-2.94,8.12,1.27,17.13,9.4,20.07s17.13-1.27,20.07-9.4c2.94-8.12-1.27-17.13-9.39-20.07Z"/>
      </g>
      <g>
        <path class="cls-2" d="M157.15,557.36c1.38-3.81-.59-8.01-4.4-9.39s-8.01.59-9.39,4.4.59,8.01,4.4,9.39,8.01-.59,9.39-4.4Z"/>
        <path class="cls-2" d="M147.47,562.54c-4.23-1.53-6.43-6.23-4.9-10.46s6.22-6.43,10.46-4.89c4.23,1.53,6.43,6.22,4.9,10.46s-6.23,6.43-10.46,4.9ZM152.47,548.75c-3.37-1.22-7.11.53-8.33,3.9-1.22,3.37.53,7.11,3.9,8.33s7.11-.53,8.33-3.9-.53-7.11-3.9-8.33Z"/>
      </g>
    </g>
    <g>
      <g>
        <path class="cls-1" d="M373.09,274.39c19.37-.54,36.41-6.35,51.44-18.64-6.85,2.33-17.41,3.51-29.49,3.76,20.96-2.93,38.53-11.21,52.38-26.33-7.22,3.64-19.17,6.52-32.88,8.5,19.02-7.03,33.94-18.39,44.24-35.33-6.24,4.81-16.98,9.72-29.61,14.14,21.33-11.9,36.82-29.2,45.55-53.61-6.9,8.02-20.18,16.99-36.07,24.51,22.74-15.1,38.69-35.86,46.42-65.4-5.44,7.85-15.44,16.64-27.62,25.2,15.98-17.54,25.5-39.74,27.43-68.13-4.61,10.63-15.17,23.6-28.25,36.31,11.99-22.53,15.24-48.04,7.76-77.97-3.11,31.61-43.98,92.97-70.79,111.78h-.01c.32-4.42,0-9.39-1.08-15.04-7.29,24.44-11.57,26.69-35.06,37.72-5.79,2.72-9.89,5.47-12.85,7.65-.4-4.42-1.93-8.92-5.14-13.66,1.06,16.27-12.23,26.15-24.57,35.66-7.03,5.42-22.44,20.46-8.1,26.67,7.23,3.13,9.1,15.08-5.04,26.69-8.33,6.84-20.61,11.19-29.4,13.27-.72,4.82.73,8.95,3.41,9.46-.62,7.6-.89,19.37,5.5,21.89.23,10.6,2.47,19.61,5.12,25.73,1.47-.09,6.12-3.41,9.46-8.37,1.55,2.01,5,9.38,10.79,13.67,3.84-4.49,5.86-10.68,6.74-15.69,3.47,4.59,9.9,8.99,15.06,11.39,2.62-5.52,3.46-11.24,3.66-15.64,2.25,1.51,6.32,6.14,14.24,9.2,1.73-6.94,1.87-11.45,1.64-18.16,4.03,3.79,11.59,8.68,20.88,11.05.17-11-4.04-20.53-5.2-24.14,9.78,2.56,19.16,5.64,33.13,5.21-7.65-11.34-17.13-18.68-23.69-23.36Z"/>
        <path class="cls-1" d="M344.47,182.65c-1.13,21.34-15.48,25.27-16.57,28.99-.05.19.4.39,1.14.63l.02.07.05-.04c4.11,1.35,16.59,4,2.95,12.28-1.34.81-2.32,1.44-3.02,1.94h-.03s0,.02,0,.02c-4.78,3.43,4.34.46,5.8,7.41,1.78,8.45-15.24,4.35-7.26,11.04,11.02,9.24-8.7,8.92-8.55,10.43.15,1.51,9.33,10.99-6.96,8.21-3.12-.53,4.48,10.95-5.68,7.64-1.07-.35-1.89-.65-2.52-.9-.03-.13-.07-.27-.1-.41l-.36.22c-2.04-.86-1.28-.86-.73.45l-.18.11c.1.08.2.15.3.23.27.83.4,2.06-.12,3.78-1.78,5.9-9.8-1.35-10.46.13-5.96,13.23-8.43.54-10.79,2.81-2.1,2.03-2.97,4.27-6.41,3.62.24.16.48.27.73.34l-.54,6.68c-.11,14.37,8.26,21.26,14.01,12.21,1.42,7.49,3.53,11.44,6.79,20.74-2.76-12.67-1.64-7.32-4.77-18.91,3.95,2.67,9.02,1.65,10.9-3.34,2.92,2.99,2.44,8.65,11.58,20.25-3.51-7.4-5.69-10.95-8.64-18.58,4.5,1.67,9.67.07,10.41-5.28,4.24,1.74,2.67,9.68,16.56,19.31-7.55-8.19-7.98-8.58-13.29-18.24,5.25,1.28,9.78.11,9.81-6.5,7.03,2.43,9.46,9.64,19.4,15.54-5.44-5.87-8.1-7.88-12.8-14.15,4.49.06,6.92-2.63,6.54-9.4,9.43,2.29,9.42,4.43,22.23,10.7-9.85-7.98-4.43-3.66-13.49-10.28,3.43-1.01,4.56-4.22,3.28-10.31,10.89.68,7.19-1.88,19.33,2.22-4.38-3.52-5.3-4.47-8.8-5.41,1.7-.62,1.2-3.03-.73-7.38,14.43.43,20.85.63,33.18-2.23-15.08.73-16.3.48-23.8-1.13-.03-1.4-.45-5.04-2.18-7.18,3.58-1.62,7.71-4.01,9.21-6.66.53-.94,14.88,3.28,35.25-2.85-16.29,2.19-18.44,1.02-34.72.19-.22-1.12-1.03-2.25-2.65-3.38,3.47-1.8,7.09-4.33,8.5-6.74.12-.21,37.56-8.14,43.68-11.42-19.27,5.7-23.41,5.28-43.13,8.9-.29-1.23-1.53-2.33-4.16-3.14,6.8-4.56,13.23-12.5,3.15-13.88.04-.04,5.24-.56,10.11-1.58,13.15-2.75,30.2-8.13,43.75-19.78-22.27,12.67-28.54,14.03-52.72,20.4,8.71-6.49,11.44-15.08,1.4-15.35,31.94-7.03,54.92-24.89,74.54-49.84-26.71,25.73-40.32,37.36-75.98,49.54,4.59-4.7,13.99-14.16,9.54-20.08-3.24-3.01-6.81-2.31-10.42-.66,33.54-10.66,54.8-31.09,74.37-60.25-25.63,30.19-36.36,43.01-74.38,59.28,4.01-5.19,6.69-11.6,7.51-19.84-6.96,27.47-30.99,33.76-51.72,43.69,2.47-4.33,3.05-8.15,2.65-14.88h0ZM387.12,193.81c-.58.9-2.59,2.25-4.11,3.16-9.22,3.96-43.99,15.14-52.7,13.71,5.65-4.06,8.49-6.43,10.99-10.74,15.37-6.11,29.79-11.27,39.77-20.39,10.41-9.5,20.81-2.29,7.48,12.66-.75.85-1.38,1.56-1.88,2.18.13-.19.28-.39.45-.58h0ZM393.21,200.54c.82,5.67-10.47,12.29-15.46,13.75-14.82,4.35-23.69,6.77-40.9,8.47,4.6-4.55,4.06-8.93-4.5-10.95,16.74-.85,28.43-3.24,41.95-9.78,3.42-1.65,17.71-9.71,18.91-1.49h0ZM336.7,222.9c13.97.71,25.62-1,37.69-5.87,9.85-3.97,14.66-4.05,13.6-.63-5.45,17.72-41.27,14.49-52.72,14.33-1.06-1.17-2.61-2.32-4.68-3.43,2.51-1.43,4.58-2.92,6.1-4.4h0ZM335.45,230.94c14.39,2.2,27.65,3,41.07-2.8,2.99-1.29,5.13-1.61,7.85.8,2.7,2.39-2.81,4.69-6.54,6.7-12.92,6.97-28.47,4.8-42.82,3.37,2.5-2.48,2.82-5.31.45-8.07h0ZM334.88,239.14c17.87,4.16,22.58,5.27,39.97-.64.08.18.23.35.47.53,5.75,4.19.2,8.37-5.17,10.05-5.11,1.6-9.85.82-12.93.56-8.57-.71-15.86-1.68-25.92-3.7-.72-.96-1.67-1.95-2.9-2.98,2.81-1.11,5-2.41,6.47-3.82h0ZM331.54,246.26c2.46.91,14.76,3.94,24.76,5.11,5.47.65,11.82.57,11.87.64,1.22,1.69,1.94,2.27,2.27,3.3,3.17,9.8-36.01-.75-39.18-1.58,2.01-1.81,2.38-4.43.28-7.46h0ZM331.04,253.91c3.58,1.65,11.09,3.97,19.1,5.76,3.11.7,10.68,1.36,10.69,1.4,2.81,7.01-.06,8.56-5.08,8.52-6.6-.06-29.99-7.44-33.62-13.17,3.85-.01,7.02-.94,8.9-2.51h0ZM322.83,258.82c8.81,5.99,16.05,10.52,28.41,11.95,0,.13,0,.26.02.42,3.37,22.39-25.25-.04-31.54-5.46,3.18-.86,4.12-3.57,3.1-6.9h0ZM339.61,280.82c-.34,2.35,2.49,11.7-9.31,7.95-7.26-2.31-12.99-10.81-17.87-16.73,1.41-1.2,1.94-3.34.83-6.33,3.66.72,5.62,2.12,8.56,3.9,5.02,3.06,10.81,7.26,17.79,11.2h0ZM320.68,295.38c-9.56-1.14-12.73-14.07-16.45-21.97,0-.49-.03-1.02-.11-1.58,2.56,1.44,5.24,1.71,7.13.92.24-.1.89-.12.68-.26-.11-.07,4.78,6.25,9.03,12.28,4.16,5.9,7.78,11.52-.28,10.6h0ZM304.07,274.91c1.54,7.2,4.63,11.95,7.04,15.48,1.83,2.68,3.56,4.57,2.29,6.86-3.81,6.85-10.85.43-13.25-4.41-2.95-5.93-5.83-14.85-6.6-16.76,5.24,3.28,9.62,2.93,10.52-1.16h0ZM300.85,298.75c-2.08,6.33-10.63,3.37-11.39-3.01-.65-5.46-1.86-8.62-3.03-13.83,3.21,1.39,4.72-1.01,6.63-6.02.37,1.38,2.07,7.17,4.22,13.55,1.57,4.62,3.64,9.1,3.57,9.31h0ZM285.27,281.19c1.08,8.4,4.86,16.32,2.46,19.33-7.25,9.11-11.65-3.49-12.06-12.21l.04-6.68c2.24.67,4.59-1.86,5.97-3.29,1.56,1.39,2.38,2.32,3.58,2.85Z"/>
      </g>
      <g>
        <path class="cls-1" d="M113.18,274.39c-19.37-.54-36.41-6.35-51.44-18.64,6.85,2.33,17.41,3.51,29.49,3.76-20.96-2.93-38.53-11.21-52.38-26.33,7.22,3.64,19.17,6.52,32.88,8.5-19.02-7.03-33.94-18.39-44.24-35.33,6.24,4.81,16.98,9.72,29.61,14.14-21.33-11.9-36.82-29.2-45.55-53.61,6.9,8.02,20.18,16.99,36.07,24.51C24.88,176.29,8.93,155.52,1.2,125.99c5.44,7.85,15.44,16.64,27.62,25.2C12.84,133.65,3.31,111.45,1.39,83.06c4.61,10.63,15.17,23.6,28.25,36.31-11.99-22.53-15.24-48.04-7.76-77.97,3.11,31.61,43.98,92.97,70.79,111.78h.01c-.32-4.42,0-9.39,1.08-15.04,7.29,24.44,11.57,26.69,35.06,37.72,5.79,2.72,9.89,5.47,12.85,7.65.4-4.42,1.93-8.92,5.14-13.66-1.06,16.27,12.23,26.15,24.57,35.66,7.03,5.42,22.44,20.46,8.1,26.67-7.23,3.13-9.1,15.08,5.04,26.69,8.33,6.84,20.61,11.19,29.4,13.27.72,4.82-.73,8.95-3.41,9.46.62,7.6.89,19.37-5.5,21.89-.23,10.6-2.47,19.61-5.12,25.73-1.47-.09-6.12-3.41-9.46-8.37-1.55,2.01-5,9.38-10.79,13.67-3.84-4.49-5.86-10.68-6.74-15.69-3.47,4.59-9.9,8.99-15.06,11.39-2.62-5.52-3.46-11.24-3.66-15.64-2.25,1.51-6.32,6.14-14.24,9.2-1.73-6.94-1.87-11.45-1.64-18.16-4.03,3.79-11.59,8.68-20.88,11.05-.17-11,4.04-20.53,5.2-24.14-9.78,2.56-19.16,5.64-33.13,5.21,7.65-11.34,17.13-18.68,23.69-23.36Z"/>
        <path class="cls-1" d="M141.81,182.65c-.4,6.73.18,10.55,2.65,14.88-20.73-9.93-44.76-16.22-51.72-43.69.82,8.24,3.5,14.64,7.51,19.84-38.02-16.27-48.75-29.09-74.38-59.28,19.57,29.16,40.83,49.59,74.37,60.25-3.61-1.66-7.18-2.35-10.42.66-4.45,5.92,4.95,15.38,9.54,20.08-35.67-12.18-49.27-23.81-75.98-49.54,19.62,24.95,42.6,42.81,74.54,49.84-10.04.27-7.31,8.86,1.4,15.35-24.19-6.37-30.45-7.74-52.72-20.4,13.55,11.65,30.6,17.03,43.75,19.78,4.87,1.02,10.07,1.54,10.11,1.58-10.08,1.38-3.65,9.31,3.15,13.88-2.63.81-3.88,1.9-4.16,3.14-19.72-3.62-23.86-3.19-43.13-8.9,6.12,3.28,43.56,11.21,43.68,11.42,1.41,2.4,5.04,4.94,8.5,6.74-1.62,1.12-2.43,2.26-2.65,3.38-16.29.83-18.44,2.01-34.72-.19,20.38,6.12,34.72,1.9,35.25,2.85,1.51,2.65,5.64,5.03,9.21,6.66-1.72,2.13-2.15,5.77-2.18,7.18-7.5,1.61-8.72,1.86-23.8,1.13,12.33,2.86,18.75,2.66,33.18,2.23-1.93,4.35-2.43,6.76-.73,7.38-3.5.94-4.43,1.89-8.8,5.41,12.14-4.1,8.43-1.55,19.33-2.22-1.28,6.09-.15,9.3,3.28,10.31-9.06,6.62-3.63,2.3-13.49,10.28,12.81-6.27,12.8-8.42,22.23-10.7-.38,6.77,2.05,9.46,6.54,9.4-4.7,6.27-7.37,8.29-12.8,14.15,9.93-5.9,12.37-13.11,19.4-15.54.03,6.61,4.56,7.78,9.81,6.5-5.31,9.66-5.74,10.06-13.29,18.24,13.89-9.63,12.32-17.57,16.56-19.31.75,5.35,5.91,6.95,10.41,5.28-2.95,7.63-5.13,11.18-8.64,18.58,9.13-11.6,8.66-17.26,11.58-20.25,1.88,4.98,6.94,6.01,10.9,3.34-3.13,11.59-2.01,6.24-4.77,18.91,3.26-9.3,5.38-13.25,6.79-20.74,5.75,9.06,14.12,2.16,14.01-12.21l-.54-6.68c.24-.07.49-.18.73-.34-3.44.66-4.31-1.59-6.41-3.62-2.36-2.27-4.83,10.42-10.79-2.81-.66-1.48-8.68,5.77-10.46-.13-.51-1.71-.39-2.95-.12-3.78.1-.07.2-.15.3-.23l-.18-.11c.55-1.3,1.31-1.3-.73-.45l-.36-.22c-.03.14-.07.27-.1.41-.63.25-1.45.55-2.52.9-10.16,3.31-2.57-8.17-5.68-7.64-16.29,2.78-7.11-6.69-6.96-8.21.15-1.51-19.56-1.19-8.55-10.43,7.98-6.69-9.04-2.59-7.26-11.04,1.46-6.94,10.59-3.98,5.8-7.41v-.03h-.03c-.69-.48-1.68-1.11-3.02-1.93-13.64-8.27-1.16-10.93,2.95-12.28l.05.04.02-.07c.74-.25,1.19-.45,1.14-.63-1.09-3.73-15.45-7.66-16.57-28.99h0ZM99.15,193.81c.17.19.32.39.45.58-.51-.61-1.13-1.33-1.88-2.18-13.33-14.95-2.92-22.16,7.48-12.66,9.98,9.12,24.4,14.28,39.77,20.39,2.5,4.31,5.33,6.67,10.99,10.74-8.71,1.43-43.48-9.75-52.7-13.71-1.52-.91-3.52-2.26-4.11-3.16h0ZM93.07,200.54c1.19-8.22,15.49-.16,18.91,1.49,13.52,6.54,25.21,8.93,41.95,9.78-8.56,2.02-9.1,6.4-4.5,10.95-17.21-1.7-26.08-4.12-40.9-8.47-4.99-1.46-16.29-8.09-15.46-13.75h0ZM149.58,222.9c1.53,1.48,3.59,2.97,6.1,4.4-2.07,1.11-3.61,2.26-4.68,3.43-11.45.16-47.28,3.39-52.72-14.33-1.06-3.43,3.75-3.34,13.6.63,12.07,4.87,23.72,6.57,37.69,5.87h0ZM150.82,230.94c-2.38,2.76-2.06,5.59.45,8.07-14.35,1.43-29.9,3.61-42.82-3.37-3.73-2.01-9.24-4.32-6.54-6.7,2.72-2.41,4.86-2.09,7.85-.8,13.42,5.8,26.68,5,41.07,2.8h0ZM151.4,239.14c1.47,1.41,3.66,2.71,6.47,3.82-1.23,1.03-2.18,2.02-2.9,2.98-10.06,2.01-17.35,2.98-25.92,3.7-3.08.26-7.82,1.04-12.93-.56-5.36-1.69-10.91-5.87-5.17-10.05.24-.17.39-.35.47-.53,17.39,5.92,22.1,4.8,39.97.64h0ZM154.74,246.26c-2.1,3.03-1.73,5.65.28,7.46-3.16.84-42.35,11.38-39.18,1.58.33-1.02,1.05-1.61,2.27-3.3.05-.06,6.39,0,11.87-.64,10-1.18,22.3-4.2,24.76-5.11h0ZM155.23,253.91c1.89,1.57,5.06,2.49,8.9,2.51-3.63,5.73-27.03,13.12-33.62,13.17-5.01.04-7.89-1.51-5.08-8.52.02-.04,7.58-.7,10.69-1.4,8.01-1.79,15.52-4.12,19.1-5.76h0ZM163.45,258.82c-1.01,3.33-.07,6.04,3.1,6.9-6.28,5.42-34.9,27.86-31.54,5.46.02-.15.03-.29.02-.42,12.36-1.43,19.6-5.96,28.41-11.95h0ZM146.67,280.82c6.99-3.94,12.77-8.14,17.79-11.2,2.94-1.79,4.9-3.18,8.56-3.9-1.11,2.99-.58,5.13.83,6.33-4.89,5.92-10.61,14.42-17.87,16.73-11.8,3.75-8.97-5.6-9.31-7.95h0ZM165.59,295.38c-8.06.92-4.44-4.7-.28-10.6,4.25-6.03,9.13-12.35,9.03-12.28-.21.14.44.16.68.26,1.89.79,4.57.52,7.13-.92-.08.56-.11,1.09-.11,1.58-3.72,7.9-6.89,20.82-16.45,21.97h0ZM182.2,274.91c.9,4.1,5.28,4.44,10.52,1.16-.76,1.92-3.65,10.83-6.6,16.76-2.41,4.84-9.45,11.26-13.25,4.41-1.27-2.29.46-4.18,2.29-6.86,2.41-3.53,5.5-8.28,7.04-15.48h0ZM185.43,298.75c-.07-.22,2-4.69,3.57-9.31,2.16-6.38,3.85-12.16,4.22-13.55,1.91,5,3.42,7.41,6.63,6.02-1.18,5.22-2.38,8.37-3.03,13.83-.76,6.38-9.31,9.34-11.39,3.01h0ZM204.58,278.33c1.38,1.44,3.73,3.97,5.97,3.29l.04,6.68c-.4,8.72-4.81,21.32-12.06,12.21-2.39-3.01,1.38-10.94,2.46-19.33,1.19-.54,2.01-1.46,3.58-2.85Z"/>
      </g>
    </g>
  </g>
</svg>