<?xml version="1.0" encoding="UTF-8"?>
<!DOCTYPE svg PUBLIC "-//W3C//DTD SVG 1.1//EN" "http://www.w3.org/Graphics/SVG/1.1/DTD/svg11.dtd">
<!-- Creator: CorelDRAW -->
<svg xmlns="http://www.w3.org/2000/svg" xml:space="preserve" width="94.7881mm" height="35.6223mm" version="1.1" style="shape-rendering:geometricPrecision; text-rendering:geometricPrecision; image-rendering:optimizeQuality; fill-rule:evenodd; clip-rule:evenodd"
viewBox="0 0 2053.4 771.69"
 xmlns:xlink="http://www.w3.org/1999/xlink"
 xmlns:xodm="http://www.corel.com/coreldraw/odm/2003">
 <defs>
  <style type="text/css">
   <![CDATA[
    .fil0 {fill:#FEFEFE}
   ]]>
  </style>
 </defs>
 <g id="圖層_x0020_1">
  <metadata id="CorelCorpID_0Corel-Layer"/>
  <g id="_2706801073104">
   <path class="fil0" d="M1832.2 359.38l-723.49 0.04 0 390.57 142.52 0 -0.63 -228.18c187.58,0.69 374.65,0.92 562.22,0.27 105.89,-0.36 153.65,-19.74 194.54,-86.97 39.34,-64.68 54.93,-154.11 41.07,-238.86 -10.57,-64.64 -41.96,-149.5 -101.01,-180.1 -15.75,-8.16 -45.48,-13.98 -80.36,-13.95l-760.02 0.71 -1.35 170.5 581.52 0c85.74,0 126.08,-2.76 154.51,2 36.19,6.05 44.74,10.61 44.3,84.59 -0.32,55.19 -0.84,99.38 -53.83,99.37z"/>
   <path class="fil0" d="M27.38 603.64l-2.92 163.51c204.32,2.17 407.14,4.37 611.53,4.37 92.38,0 193.45,4.72 268.02,-35.59 66.34,-35.87 104.01,-107.34 102.43,-208.25 -3.46,-220.99 -180.46,-233 -382.42,-233.19 -208.01,-0.19 -416.03,-1.08 -624.04,-1.47 21.81,193.23 190.54,172 313.02,172l419 0c33.81,0 56.84,5.74 64.67,9.88 22.02,11.64 41.14,44.44 32.12,78.21 -10.38,38.84 -57.14,50.28 -116.03,50.54l-196.42 0.85 -489 -0.85z"/>
   <path class="fil0" d="M1.99 170.44l958.5 1.49 -0.28 -169.01c-188.62,-0.48 -376.04,-0.77 -563.45,-1.13 -120.01,-0.24 -390.95,-30.6 -394.77,168.65z"/>
  </g>
 </g>
</svg>
