<?xml version="1.0" encoding="UTF-8"?>
<!DOCTYPE svg PUBLIC "-//W3C//DTD SVG 1.1//EN" "http://www.w3.org/Graphics/SVG/1.1/DTD/svg11.dtd">
<!-- Creator: CorelDRAW -->
<svg xmlns="http://www.w3.org/2000/svg" xml:space="preserve" width="114.487mm" height="59.8163mm" version="1.1" style="shape-rendering:geometricPrecision; text-rendering:geometricPrecision; image-rendering:optimizeQuality; fill-rule:evenodd; clip-rule:evenodd"
viewBox="0 0 2759.55 1441.79"
 xmlns:xlink="http://www.w3.org/1999/xlink"
 xmlns:xodm="http://www.corel.com/coreldraw/odm/2003">
 <defs>
  <style type="text/css">
   <![CDATA[
    .fil0 {fill:black}
    .fil1 {fill:white}
   ]]>
  </style>
 </defs>
 <g id="圖層_x0020_1">
  <metadata id="CorelCorpID_0Corel-Layer"/>
  <rect class="fil0" x="-0" width="2759.55" height="1441.79"/>
  <path class="fil1" d="M2206.14 546.4l0.14 129.89c0,15.06 -13.4,18.46 -26.09,18.46 -122.18,0 -546.54,0 -667.64,0.04l0 351.18 128.7 0 0 -204.83c184.27,-0.28 381.46,2.46 545.5,-0.28 226.51,-3.78 213.02,-446.36 33.78,-461.69 -234.29,0.88 -470,1.68 -707.99,0.26l0 150.87c76.69,-0.74 546.1,0 665.13,0 13.31,0 28.45,2.7 28.46,16.1z"/>
  <path class="fil1" d="M528.13 914.67l-3.27 144.65c137.88,3.26 392.59,3.24 538.74,3.26 103.42,0.01 341.68,27.96 336.32,-217.21 -5.07,-231.62 -234.96,-206.35 -347.12,-206.34 -172.22,0.01 -386.61,-2.58 -550.52,-2.58 6.99,93.39 75.22,153.42 171.04,154.25 177.31,1.53 382.56,-3.42 507.19,0.65 82.4,2.69 89.59,119.07 -7.58,122.71 -191.91,0 -451.24,0 -644.82,0.6z"/>
  <path class="fil1" d="M504.83 528.24l853.99 0.9 0 -149.58 -662.35 -1.33c-91.33,-0.01 -196.51,54.45 -191.64,150.01z"/>
 </g>
</svg>
