<?xml version="1.0" encoding="UTF-8"?>
<!DOCTYPE svg PUBLIC "-//W3C//DTD SVG 1.1//EN" "http://www.w3.org/Graphics/SVG/1.1/DTD/svg11.dtd">
<!-- Creator: CorelDRAW -->
<svg xmlns="http://www.w3.org/2000/svg" xml:space="preserve" width="155.973mm" height="59.8163mm" version="1.1" style="shape-rendering:geometricPrecision; text-rendering:geometricPrecision; image-rendering:optimizeQuality; fill-rule:evenodd; clip-rule:evenodd"
viewBox="0 0 4360.14 1672.14"
 xmlns:xlink="http://www.w3.org/1999/xlink"
 xmlns:xodm="http://www.corel.com/coreldraw/odm/2003">
 <defs>
  <style type="text/css">
   <![CDATA[
    .fil0 {fill:black}
    .fil1 {fill:white}
   ]]>
  </style>
 </defs>
 <g id="圖層_x0020_1">
  <metadata id="CorelCorpID_0Corel-Layer"/>
  <rect class="fil0" x="-0" width="4360.14" height="1672.14"/>
  <g id="_2075880531824">
   <path class="fil1" d="M3718.32 633.69l0.16 150.65c0,17.47 -15.54,21.4 -30.26,21.4 -141.7,0 -633.86,0 -774.31,0.05l0 407.29 149.27 0 0 -237.56c213.71,-0.33 442.41,2.86 632.65,-0.33 262.69,-4.39 247.06,-517.67 39.18,-535.45 -271.72,1.02 -545.1,1.95 -821.1,0.3l0 174.98c88.94,-0.86 633.35,0 771.39,0 15.44,0 32.99,3.14 33.01,18.67z"/>
   <path class="fil1" d="M477.66 1060.81l-3.79 167.76c159.91,3.78 455.32,3.76 624.81,3.78 119.94,0.01 396.27,32.43 390.06,-251.91 -5.88,-268.62 -272.5,-239.31 -402.58,-239.31 -199.73,0.01 -448.37,-2.99 -638.47,-2.99 8.1,108.32 87.24,177.93 198.37,178.9 205.64,1.78 443.68,-3.96 588.23,0.76 95.56,3.11 103.9,138.09 -8.79,142.32 -222.58,0 -523.33,0 -747.85,0.7z"/>
   <path class="fil1" d="M2457.65 631.7c15.01,-16.02 16.28,-16.68 56.21,-16.68l183.42 0 0 -174.98 -257.52 0c-16.28,0 -20.4,-0.27 -35.53,8.05 -15.69,8.62 -37.16,20.57 -54.65,42.52l-410.97 515.79c-30.88,39.47 -85.76,57.23 -122.9,55.8 -56.78,-2.2 -89.27,-2.08 -167.93,-2.08l0.27 171.74c99.72,0 185.33,0.49 256.04,0.49 127.73,0 197.95,-133.23 289.76,-231.3 14.05,28.06 77.07,108.06 125.09,160.45 55.01,60.01 82.01,70.85 168.12,70.85 76.41,0 159.49,0 224.63,-0.53l0.67 -171.61c-52.92,-0.1 -118.42,0.94 -177.04,-0.1 -39.18,-0.69 -74.55,-4.18 -97.09,-28.87 -31.74,-34.76 -123.88,-156.99 -138.61,-188.52l158.03 -211.02z"/>
   <path class="fil1" d="M450.64 612.64l990.43 1.05 0 -173.47 -768.18 -1.55c-105.92,-0.01 -227.91,63.15 -222.26,173.97z"/>
   <path class="fil1" d="M1648.72 614.45l165.48 0.57c24.26,0.08 45.28,1.31 58.94,4.57 57.3,13.64 75.14,60.43 114.72,110.48 27.86,-32.84 83.56,-102.11 109.43,-137.82 -55.64,-115.43 -123.44,-149.8 -238.92,-152.21 -54.22,-1.13 -136.98,0 -206.97,0l-2.67 174.41z"/>
  </g>
 </g>
</svg>
