<?xml version="1.0" encoding="UTF-8"?>
<!DOCTYPE svg PUBLIC "-//W3C//DTD SVG 1.1//EN" "http://www.w3.org/Graphics/SVG/1.1/DTD/svg11.dtd">
<!-- Creator: CorelDRAW -->
<svg xmlns="http://www.w3.org/2000/svg" xml:space="preserve" width="91.6334mm" height="91.6334mm" version="1.1" style="shape-rendering:geometricPrecision; text-rendering:geometricPrecision; image-rendering:optimizeQuality; fill-rule:evenodd; clip-rule:evenodd"
viewBox="0 0 10365.76 10365.76"
 xmlns:xlink="http://www.w3.org/1999/xlink"
 xmlns:xodm="http://www.corel.com/coreldraw/odm/2003">
 <defs>
  <style type="text/css">
   <![CDATA[
    .str0 {stroke:#FEFEFE;stroke-width:452.49;stroke-linecap:round;stroke-linejoin:round;stroke-miterlimit:22.9256}
    .fil2 {fill:none}
    .fil0 {fill:black}
    .fil1 {fill:#FEFEFE;fill-rule:nonzero}
   ]]>
  </style>
 </defs>
 <g id="圖層_x0020_1">
  <metadata id="CorelCorpID_0Corel-Layer"/>
  <rect class="fil0" width="10365.76" height="10365.76"/>
  <path class="fil1" d="M452.49 3242.99c0,124.94 -101.3,226.24 -226.24,226.24 -124.94,0 -226.24,-101.3 -226.24,-226.24l0 -1999.27c0,-342.26 139.86,-653.26 365.16,-878.56 225.31,-225.29 536.3,-365.16 878.56,-365.16l2032.39 0c124.94,0 226.24,101.3 226.24,226.24 0,124.94 -101.3,226.24 -226.24,226.24l-2032.39 0c-217.34,0 -415.11,89.09 -558.63,232.6 -143.51,143.52 -232.6,341.29 -232.6,558.63l0 1999.27zm6660.41 -2790.51c-124.94,0 -226.24,-101.3 -226.24,-226.24 0,-124.94 101.3,-226.24 226.24,-226.24l2009.14 0c342.26,0 653.26,139.86 878.56,365.16 225.29,225.31 365.16,536.3 365.16,878.56l0 1983.56c0,124.94 -101.3,226.24 -226.24,226.24 -124.94,0 -226.24,-101.3 -226.24,-226.24l0 -1983.56c0,-217.34 -89.09,-415.11 -232.6,-558.63 -143.52,-143.51 -341.29,-232.6 -558.63,-232.6l-2009.14 0zm2800.37 6644.95c0,-124.94 101.3,-226.24 226.24,-226.24 124.94,0 226.24,101.3 226.24,226.24l0 2024.6c0,342.26 -139.86,653.26 -365.16,878.56 -225.31,225.29 -536.3,365.16 -878.56,365.16l-2016.62 0c-124.94,0 -226.24,-101.3 -226.24,-226.24 0,-124.94 101.3,-226.24 226.24,-226.24l2016.62 0c217.34,0 415.11,-89.09 558.63,-232.6 143.51,-143.52 232.6,-341.29 232.6,-558.63l0 -2024.6zm-6650.64 2815.83c124.94,0 226.24,101.3 226.24,226.24 0,124.94 -101.3,226.24 -226.24,226.24l-2018.91 0c-342.26,0 -653.26,-139.86 -878.56,-365.16 -225.29,-225.31 -365.16,-536.3 -365.16,-878.56l0 -2016.41c0,-124.94 101.3,-226.24 226.24,-226.24 124.94,0 226.24,101.3 226.24,226.24l0 2016.41c0,217.34 89.09,415.11 232.6,558.63 143.52,143.51 341.29,232.6 558.63,232.6l2018.91 0z"/>
  <line class="fil2 str0" x1="3172.54" y1="3437.82" x2="3172.54" y2= "4531.46" />
  <line class="fil2 str0" x1="7149.95" y1="3437.82" x2="7149.95" y2= "4531.46" />
  <path class="fil2 str0" d="M5255.63 3418.3l0 1894.32c-39.83,343.96 -261.79,489.26 -683.51,416.62"/>
  <path class="fil2 str0" d="M3498.03 6705.68c1076.28,1011.42 2152.52,1019.61 3228.79,0"/>
 </g>
</svg>
