<?xml version="1.0" standalone="no"?><!DOCTYPE svg PUBLIC "-//W3C//DTD SVG 1.1//EN" "http://www.w3.org/Graphics/SVG/1.1/DTD/svg11.dtd"><svg t="1742967853152" class="icon" viewBox="0 0 1024 1024" version="1.1" xmlns="http://www.w3.org/2000/svg" p-id="11960" xmlns:xlink="http://www.w3.org/1999/xlink" width="16" height="16"><path d="M511.85 511.04m-447.5 0a447.5 447.5 0 1 0 895 0 447.5 447.5 0 1 0-895 0Z" fill="#F3BA2F" p-id="11961"></path><path d="M431.856 511.037l79.98-79.98 79.98 79.98-79.98 79.98z" fill="#FFFFFF" p-id="11962"></path><path d="M431.86 248.71L300.7 379.87l79.98 79.99 131.17-131.17 131.16 131.17 79.98-79.99-131.16-131.16-79.98-79.98zM591.83 773.37L722.99 642.2l-79.98-79.98-131.16 131.16-131.17-131.16-79.98 79.98 131.16 131.17 79.99 79.98zM169.528 511.036l79.98-79.98 79.98 79.98-79.98 79.98zM694.184 511.038l79.98-79.98 79.98 79.98-79.98 79.98z" fill="#FFFFFF" p-id="11963"></path></svg>