<?xml version="1.0" encoding="UTF-8"?>
<!DOCTYPE svg PUBLIC "-//W3C//DTD SVG 1.1//EN" "http://www.w3.org/Graphics/SVG/1.1/DTD/svg11.dtd">
<!-- Creator: CorelDRAW -->
<svg xmlns="http://www.w3.org/2000/svg" xml:space="preserve" width="107.295mm" height="25.781mm" version="1.1" style="shape-rendering:geometricPrecision; text-rendering:geometricPrecision; image-rendering:optimizeQuality; fill-rule:evenodd; clip-rule:evenodd"
viewBox="0 0 219.75 52.8"
 xmlns:xlink="http://www.w3.org/1999/xlink"
 xmlns:xodm="http://www.corel.com/coreldraw/odm/2003">
 <defs>
  <style type="text/css">
   <![CDATA[
    .fil0 {fill:#FEFEFE;fill-rule:nonzero}
   ]]>
  </style>
 </defs>
 <g id="圖層_x0020_1">
  <metadata id="CorelCorpID_0Corel-Layer"/>
  <path class="fil0" d="M7.28 18.47l2.08 0 0.47 0 2.03 0 0 -9.99c0,-0.49 -0.09,-0.81 -0.26,-0.96 -0.17,-0.16 -0.49,-0.23 -0.94,-0.23l-2.18 0c-0.49,0 -0.81,0.08 -0.96,0.23 -0.16,0.16 -0.23,0.48 -0.23,0.96l0 9.99zm-6.35 34.07l-0.94 0 0 -0.94 0 -40.94c0,-2.18 0.26,-3.97 0.78,-5.36 0.52,-1.39 1.19,-2.47 2,-3.25 0.81,-0.78 1.73,-1.32 2.73,-1.61 1.01,-0.29 1.99,-0.44 2.97,-0.44l2.18 0c0.97,0 1.96,0.15 2.97,0.44 1.01,0.29 1.92,0.83 2.73,1.61 0.81,0.78 1.48,1.86 2,3.25 0.52,1.39 0.78,3.17 0.78,5.36l0 40.94 0 0.94 -0.94 0 -5.41 0 -0.94 0 0 -0.94 0 -25.75 -0.83 0 -2.91 0 -0.83 0 0 25.75 0 0.94 -0.94 0 -5.41 0zm34.36 -7.44c0.87,0 1.38,-0.16 1.53,-0.47 0.16,-0.31 0.23,-0.59 0.23,-0.83l0 -34.54c0,-0.24 -0.08,-0.51 -0.23,-0.81 -0.16,-0.29 -0.67,-0.44 -1.53,-0.44l-2.97 0 0 37.04 2.97 0.05zm9.26 -1.3c0,1.8 -0.23,3.28 -0.7,4.42 -0.47,1.14 -1.07,2.04 -1.79,2.68 -0.73,0.64 -1.54,1.08 -2.45,1.3 -0.9,0.23 -1.79,0.34 -2.65,0.34l-11.13 0 -0.99 0 0 -0.99 0 -50.05 0 -0.99 0.99 0 11.13 0c0.87,0 1.75,0.11 2.65,0.34 0.9,0.23 1.72,0.66 2.45,1.3 0.73,0.64 1.33,1.53 1.79,2.68 0.47,1.14 0.7,2.62 0.7,4.42l0 34.54zm28.84 -43.28l1.14 0 -0.21 1.14 -7.44 50.1 -0.16 0.78 -0.78 0 -6.66 0 -0.83 0 -0.1 -0.78 -7.7 -51.24 1.14 0 5.57 0 0.83 0 0.1 0.78 4.32 36.21 4.27 -36.21 0.1 -0.78 0.83 0 5.57 0zm12.97 17.95l2.08 0 0.47 0 2.03 0 0 -9.99c0,-0.49 -0.09,-0.81 -0.26,-0.96 -0.17,-0.16 -0.49,-0.23 -0.94,-0.23l-2.18 0c-0.49,0 -0.81,0.08 -0.96,0.23 -0.16,0.16 -0.23,0.48 -0.23,0.96l0 9.99zm-6.35 34.07l-0.94 0 0 -0.94 0 -40.94c0,-2.18 0.26,-3.97 0.78,-5.36 0.52,-1.39 1.19,-2.47 2,-3.25 0.81,-0.78 1.73,-1.32 2.73,-1.61 1.01,-0.29 1.99,-0.44 2.97,-0.44l2.18 0c0.97,0 1.96,0.15 2.97,0.44 1.01,0.29 1.92,0.83 2.73,1.61 0.81,0.78 1.48,1.86 2,3.25 0.52,1.39 0.78,3.17 0.78,5.36l0 40.94 0 0.94 -0.94 0 -5.41 0 -0.94 0 0 -0.94 0 -25.75 -0.83 0 -2.91 0 -0.83 0 0 25.75 0 0.94 -0.94 0 -5.41 0zm30.87 0l-5.57 0 -0.99 0 0 -0.99 0 -50.05 0 -0.99 0.99 0 6.66 0 0.78 0 0.16 0.73 5.88 28.04 0 -27.78 0 -0.99 0.99 0 5.57 0 0.94 0 0 0.99 0 50.05 0 0.99 -0.94 0 -6.71 0 -0.73 0 -0.21 -0.73 -5.88 -25.7 0 25.44 0 0.99 -0.94 0zm30.01 0.26c-1,0 -2.02,-0.15 -3.06,-0.44 -1.03,-0.29 -1.99,-0.85 -2.85,-1.66 -0.87,-0.81 -1.56,-1.94 -2.1,-3.38 -0.54,-1.44 -0.81,-3.3 -0.81,-5.59l0 -30.38c0,-2.29 0.27,-4.15 0.81,-5.59 0.54,-1.44 1.23,-2.57 2.1,-3.38 0.87,-0.81 1.82,-1.37 2.85,-1.66 1.04,-0.29 2.06,-0.44 3.06,-0.44l2.24 0c1,0 2.03,0.15 3.09,0.44 1.05,0.29 2,0.85 2.85,1.66 0.85,0.81 1.53,1.94 2.07,3.38 0.54,1.44 0.81,3.3 0.81,5.59l0 8.43 0 0.94 -0.93 0 -5.58 0 -0.98 0 0 -0.94 0 -10.66c0,-0.49 -0.1,-0.81 -0.29,-0.99 -0.19,-0.17 -0.53,-0.26 -1.01,-0.26l-2.24 0c-0.49,0 -0.81,0.09 -0.99,0.26 -0.17,0.17 -0.26,0.5 -0.26,0.99l0 34.85c0,0.49 0.09,0.82 0.26,1.01 0.17,0.19 0.5,0.29 0.99,0.29l2.24 0c0.49,0 0.82,-0.1 1.01,-0.29 0.19,-0.19 0.29,-0.53 0.29,-1.01l0 -6.76 0 -0.94 0.98 0 5.58 0 0.93 0 0 0.94 0 4.53c0,2.29 -0.27,4.15 -0.81,5.59 -0.54,1.44 -1.22,2.57 -2.07,3.38 -0.85,0.81 -1.8,1.37 -2.85,1.66 -1.06,0.29 -2.09,0.44 -3.09,0.44l-2.24 0zm17.99 -0.26l-0.99 0 0 -0.99 0 -50.05 0 -0.99 0.99 0 5.57 0 0.94 0 0 0.99 0 50.05 0 0.99 -0.94 0 -5.57 0zm19.37 0l-5.57 0 -0.99 0 0 -0.99 0 -50.05 0 -0.99 0.99 0 6.66 0 0.78 0 0.16 0.73 5.88 28.04 0 -27.78 0 -0.99 0.99 0 5.57 0 0.94 0 0 0.99 0 50.05 0 0.99 -0.94 0 -6.71 0 -0.73 0 -0.21 -0.73 -5.88 -25.7 0 25.44 0 0.99 -0.94 0zm30.25 0c-0.97,-0.03 -1.96,-0.21 -2.97,-0.52 -1.01,-0.31 -1.92,-0.87 -2.73,-1.66 -0.81,-0.8 -1.48,-1.91 -2,-3.33 -0.52,-1.42 -0.78,-3.24 -0.78,-5.46l0 -30.07c0,-2.25 0.27,-4.09 0.81,-5.51 0.54,-1.42 1.23,-2.54 2.08,-3.36 0.85,-0.81 1.79,-1.37 2.81,-1.66 1.02,-0.29 2.04,-0.44 3.04,-0.44l2.24 0c1.01,0 2.03,0.15 3.07,0.44 1.04,0.29 1.98,0.85 2.81,1.66 0.83,0.81 1.52,1.93 2.05,3.36 0.54,1.42 0.81,3.26 0.81,5.51l0 4.37 -0.94 0 -5.57 0 -0.99 0 0 -6.61c0,-0.49 -0.09,-0.81 -0.26,-0.99 -0.17,-0.17 -0.5,-0.26 -0.99,-0.26l-2.24 0c-0.49,0 -0.81,0.09 -0.99,0.26 -0.17,0.17 -0.26,0.5 -0.26,0.99l0 34.54c0,0.49 0.09,0.81 0.26,0.99 0.17,0.17 0.5,0.26 0.99,0.26l2.24 0c0.49,0 0.81,-0.09 0.99,-0.26 0.17,-0.17 0.26,-0.5 0.26,-0.99l0 -17.48 -1.4 0 -0.94 0 0 -0.94 0 -5.57 0 -0.99 0.94 0 7.96 0 0.94 0 0 0.99 0 31.73 0 0.99 -0.94 0 -1.25 0 -4.32 0 -0.99 0 -2.55 0 -0.94 0 -0.26 0z"/>
 </g>
</svg>
