<?xml version="1.0" encoding="UTF-8"?>
<!DOCTYPE svg PUBLIC "-//W3C//DTD SVG 1.1//EN" "http://www.w3.org/Graphics/SVG/1.1/DTD/svg11.dtd">
<!-- Creator: CorelDRAW -->
<svg xmlns="http://www.w3.org/2000/svg" xml:space="preserve" width="121.043mm" height="23.4615mm" version="1.1" style="shape-rendering:geometricPrecision; text-rendering:geometricPrecision; image-rendering:optimizeQuality; fill-rule:evenodd; clip-rule:evenodd"
viewBox="0 0 277.11 53.71"
 xmlns:xlink="http://www.w3.org/1999/xlink"
 xmlns:xodm="http://www.corel.com/coreldraw/odm/2003">
 <defs>
  <style type="text/css">
   <![CDATA[
    .fil0 {fill:#FEFEFE;fill-rule:nonzero}
   ]]>
  </style>
 </defs>
 <g id="圖層_x0020_1">
  <metadata id="CorelCorpID_0Corel-Layer"/>
  <path class="fil0" d="M10.58 45.92c0.88,0 1.4,-0.16 1.55,-0.47 0.16,-0.32 0.24,-0.6 0.24,-0.84l0 -34.96c0,-0.25 -0.08,-0.52 -0.24,-0.82 -0.16,-0.3 -0.68,-0.45 -1.55,-0.45l-3 0 0 37.49 3 0.05zm9.37 -1.32c0,1.83 -0.24,3.32 -0.71,4.48 -0.47,1.16 -1.08,2.06 -1.82,2.71 -0.74,0.65 -1.56,1.09 -2.47,1.32 -0.91,0.23 -1.81,0.34 -2.69,0.34l-11.27 0 -1 0 0 -1 0 -50.66 0 -1 1 0 11.27 0c0.88,0 1.77,0.11 2.69,0.34 0.91,0.23 1.74,0.67 2.47,1.32 0.74,0.65 1.34,1.55 1.82,2.71 0.47,1.16 0.71,2.65 0.71,4.48l0 34.96zm24.09 8.85l-16.69 0 -1 0 0 -1 0 -50.66 0 -1 1 0 16.69 0 0.32 0 0 1 0 5.63 0 1 -0.32 0 -10.11 0 0 10.74 8.79 0 1 0 0 1 0 5.79 0 0.95 -1 0 -8.79 0 0 18.96 10.11 0 0.32 0 0 0.95 0 5.63 0 1 -0.32 0zm24.77 0l-16.69 0 -1 0 0 -1 0 -50.66 0 -1 1 0 16.69 0 0.32 0 0 1 0 5.63 0 1 -0.32 0 -10.11 0 0 10.74 8.79 0 1 0 0 1 0 5.79 0 0.95 -1 0 -8.79 0 0 18.96 10.11 0 0.32 0 0 0.95 0 5.63 0 1 -0.32 0zm17.92 -43.81c0,-0.25 -0.08,-0.52 -0.24,-0.82 -0.16,-0.3 -0.68,-0.45 -1.55,-0.45l-3 0 0 12.16 3 0.05c0.88,0 1.4,-0.15 1.55,-0.45 0.16,-0.3 0.24,-0.59 0.24,-0.87l0 -9.64zm7.58 9.64c0,1.83 -0.24,3.32 -0.71,4.48 -0.47,1.16 -1.08,2.06 -1.82,2.71 -0.74,0.65 -1.56,1.09 -2.47,1.32 -0.91,0.23 -1.81,0.34 -2.69,0.34l-4.69 0 0 24.33 0 1 -0.95 0 -5.63 0 -1 0 0 -1 0 -50.66 0 -1 1 0 11.27 0c0.88,0 1.77,0.11 2.69,0.34 0.91,0.23 1.74,0.67 2.47,1.32 0.74,0.65 1.34,1.55 1.82,2.71 0.47,1.16 0.71,2.65 0.71,4.48l0 9.64zm15.61 26.64c0.88,0 1.4,-0.16 1.55,-0.47 0.16,-0.32 0.24,-0.6 0.24,-0.84l0 -34.96c0,-0.25 -0.08,-0.52 -0.24,-0.82 -0.16,-0.3 -0.68,-0.45 -1.55,-0.45l-3 0 0 37.49 3 0.05zm9.37 -1.32c0,1.83 -0.24,3.32 -0.71,4.48 -0.47,1.16 -1.08,2.06 -1.82,2.71 -0.74,0.65 -1.56,1.09 -2.47,1.32 -0.91,0.23 -1.81,0.34 -2.69,0.34l-11.27 0 -1 0 0 -1 0 -50.66 0 -1 1 0 11.27 0c0.88,0 1.77,0.11 2.69,0.34 0.91,0.23 1.74,0.67 2.47,1.32 0.74,0.65 1.34,1.55 1.82,2.71 0.47,1.16 0.71,2.65 0.71,4.48l0 34.96zm24.09 8.85l-16.69 0 -1 0 0 -1 0 -50.66 0 -1 1 0 16.69 0 0.32 0 0 1 0 5.63 0 1 -0.32 0 -10.11 0 0 10.74 8.79 0 1 0 0 1 0 5.79 0 0.95 -1 0 -8.79 0 0 18.96 10.11 0 0.32 0 0 0.95 0 5.63 0 1 -0.32 0zm14.37 0.26c-1.01,0 -2.05,-0.15 -3.1,-0.45 -1.04,-0.3 -2.01,-0.86 -2.89,-1.69 -0.88,-0.82 -1.58,-1.97 -2.12,-3.42 -0.54,-1.46 -0.82,-3.34 -0.82,-5.66l0 -30.75c0,-2.32 0.27,-4.2 0.82,-5.66 0.54,-1.46 1.25,-2.6 2.12,-3.42 0.88,-0.83 1.84,-1.39 2.89,-1.69 1.05,-0.3 2.09,-0.45 3.1,-0.45l2.26 0c1.01,0 2.05,0.15 3.12,0.45 1.06,0.3 2.03,0.86 2.89,1.69 0.86,0.82 1.55,1.97 2.1,3.42 0.54,1.46 0.82,3.34 0.82,5.66l0 8.53 0 0.95 -0.94 0 -5.65 0 -0.99 0 0 -0.95 0 -10.8c0,-0.49 -0.1,-0.82 -0.29,-1 -0.19,-0.18 -0.54,-0.26 -1.03,-0.26l-2.26 0c-0.49,0 -0.83,0.09 -1,0.26 -0.18,0.18 -0.26,0.51 -0.26,1l0 35.28c0,0.49 0.09,0.83 0.26,1.03 0.18,0.19 0.51,0.29 1,0.29l2.26 0c0.49,0 0.83,-0.1 1.03,-0.29 0.19,-0.19 0.29,-0.54 0.29,-1.03l0 -6.85 0 -0.95 0.99 0 5.65 0 0.94 0 0 0.95 0 4.58c0,2.32 -0.27,4.2 -0.82,5.66 -0.54,1.46 -1.24,2.6 -2.1,3.42 -0.86,0.83 -1.83,1.39 -2.89,1.69 -1.07,0.3 -2.12,0.45 -3.12,0.45l-2.26 0zm18.21 -0.26l-1 0 0 -1 0 -50.66 0 -1 1 0 5.63 0 0.95 0 0 1 0 50.66 0 1 -0.95 0 -5.63 0zm23.74 -53.45c1.01,0 2.05,0.15 3.12,0.45 1.06,0.3 2.03,0.86 2.89,1.68 0.86,0.83 1.55,1.97 2.1,3.42 0.54,1.46 0.82,3.34 0.82,5.66l0 3.42 0 1 -0.99 0 -5.65 0 -0.94 0 0 -0.95 0 -5.69c0,-0.07 -0.03,-0.18 -0.08,-0.32 -0.05,-0.14 -0.16,-0.28 -0.32,-0.42 -0.16,-0.14 -0.39,-0.26 -0.71,-0.37 -0.32,-0.11 -0.74,-0.16 -1.26,-0.16 -0.95,0 -1.6,0.14 -1.95,0.42 -0.35,0.28 -0.53,0.56 -0.53,0.84l0 5.06c0,0.11 0.04,0.45 0.13,1.03 0.09,0.58 0.41,1.33 0.97,2.24 0.95,1.58 1.98,3.12 3.1,4.63 1.11,1.51 2.29,3.04 3.51,4.58 3.15,3.93 4.72,7.18 4.72,9.74l0 8.48c0,2.95 -0.75,5.18 -2.23,6.69 -1.49,1.51 -3.72,2.26 -6.7,2.26l-2.26 0c-2.94,0 -5.16,-0.75 -6.67,-2.26 -1.5,-1.51 -2.26,-3.74 -2.26,-6.69l0 -5.69 0 -1 0.05 0 0.95 0 5.69 0 1 0 0 0.95 0 5.69c0,0.32 0.18,0.61 0.53,0.9 0.35,0.28 0.95,0.46 1.79,0.53 1.02,-0.04 1.69,-0.18 2.03,-0.42 0.33,-0.25 0.5,-0.58 0.5,-1l0 -4.48 0 -0.58 0 -0.11c0,-0.53 -0.09,-1.11 -0.26,-1.76 -0.18,-0.65 -0.35,-1.1 -0.53,-1.34 -1.02,-1.65 -2.11,-3.28 -3.26,-4.9 -1.16,-1.61 -2.39,-3.25 -3.69,-4.9 -3.19,-3.97 -4.79,-7.21 -4.79,-9.74l0 -5.69c0,-2.32 0.27,-4.2 0.82,-5.66 0.54,-1.46 1.25,-2.6 2.12,-3.42 0.88,-0.82 1.84,-1.39 2.89,-1.68 1.05,-0.3 2.09,-0.45 3.1,-0.45l2.26 0zm16 53.45l-1 0 0 -1 0 -50.66 0 -1 1 0 5.63 0 0.95 0 0 1 0 50.66 0 1 -0.95 0 -5.63 0zm25.45 -43.97c0,-0.49 -0.1,-0.82 -0.29,-1 -0.19,-0.18 -0.54,-0.26 -1.03,-0.26l-2.26 0c-0.49,0 -0.83,0.09 -1,0.26 -0.18,0.18 -0.26,0.51 -0.26,1l0 35.28c0,0.49 0.09,0.82 0.26,1 0.18,0.18 0.51,0.26 1,0.26l2.26 0c0.49,0 0.83,-0.09 1.03,-0.26 0.19,-0.18 0.29,-0.51 0.29,-1l0 -35.28zm7.58 33.02c0,2.32 -0.27,4.2 -0.82,5.66 -0.54,1.46 -1.24,2.6 -2.1,3.42 -0.86,0.83 -1.83,1.39 -2.89,1.69 -1.07,0.3 -2.12,0.45 -3.12,0.45l-2.26 0c-1.01,0 -2.05,-0.15 -3.1,-0.45 -1.04,-0.3 -2.01,-0.86 -2.89,-1.69 -0.88,-0.82 -1.58,-1.97 -2.12,-3.42 -0.54,-1.46 -0.82,-3.34 -0.82,-5.66l0 -30.75c0,-2.32 0.27,-4.2 0.82,-5.66 0.54,-1.46 1.25,-2.6 2.12,-3.42 0.88,-0.83 1.84,-1.39 2.89,-1.69 1.05,-0.3 2.09,-0.45 3.1,-0.45l2.26 0c1.01,0 2.05,0.15 3.12,0.45 1.06,0.3 2.03,0.86 2.89,1.69 0.86,0.82 1.55,1.97 2.1,3.42 0.54,1.46 0.82,3.34 0.82,5.66l0 30.75zm12.76 10.95l-5.63 0 -1 0 0 -1 0 -50.66 0 -1 1 0 6.74 0 0.79 0 0.16 0.74 5.95 28.38 0 -28.12 0 -1 1 0 5.63 0 0.95 0 0 1 0 50.66 0 1 -0.95 0 -6.79 0 -0.74 0 -0.21 -0.74 -5.95 -26.01 0 25.75 0 1 -0.95 0z"/>
 </g>
</svg>
