<?xml version="1.0" encoding="UTF-8"?>
<!DOCTYPE svg PUBLIC "-//W3C//DTD SVG 1.1//EN" "http://www.w3.org/Graphics/SVG/1.1/DTD/svg11.dtd">
<!-- Creator: CorelDRAW -->
<svg xmlns="http://www.w3.org/2000/svg" xml:space="preserve" width="25.9081mm" height="89.6979mm" version="1.1" style="shape-rendering:geometricPrecision; text-rendering:geometricPrecision; image-rendering:optimizeQuality; fill-rule:evenodd; clip-rule:evenodd"
viewBox="0 0 9.64 33.37"
 xmlns:xlink="http://www.w3.org/1999/xlink"
 xmlns:xodm="http://www.corel.com/coreldraw/odm/2003">
 <defs>
  <style type="text/css">
   <![CDATA[
    .fil0 {fill:#FEFEFE;fill-rule:nonzero}
   ]]>
  </style>
 </defs>
 <g id="圖層_x0020_1">
  <metadata id="CorelCorpID_0Corel-Layer"/>
  <path class="fil0" d="M7.91 2.02c0.04,0 0.09,-0.01 0.15,-0.04 0.05,-0.03 0.08,-0.12 0.08,-0.28l0 -0.34 -2.16 0 -0.01 0.34c0,0.16 0.02,0.25 0.07,0.28 0.05,0.03 0.1,0.04 0.15,0.04l1.73 0zm1.59 -0.03c0,0.16 -0.02,0.32 -0.06,0.48 -0.04,0.16 -0.12,0.31 -0.24,0.45 -0.12,0.14 -0.28,0.25 -0.49,0.33 -0.21,0.09 -0.48,0.13 -0.8,0.13l-1.67 0c-0.17,0 -0.34,-0.04 -0.52,-0.11 -0.18,-0.08 -0.32,-0.22 -0.43,-0.44 -0.14,0.18 -0.32,0.32 -0.55,0.42 -0.23,0.09 -0.45,0.14 -0.68,0.14l-4.02 0 0 -1.36 4.4 0c0.09,0 0.15,-0.02 0.18,-0.05 0.03,-0.03 0.05,-0.09 0.05,-0.18l0 -0.43 -4.45 0 -0.18 0 0 -0.17 0 -1.01 0 -0.18 0.18 0 9.09 0 0.18 0 0 0.18 0 1.81zm-9.45 5.66l0 -3 0 -0.18 0.18 0 9.09 0 0.18 0 0 0.18 0 3 0 0.06 -0.18 0 -1.01 0 -0.18 0 0 -0.06 0 -1.81 -1.93 0 0 1.58 0 0.18 -0.18 0 -1.04 0 -0.17 0 0 -0.18 0 -1.58 -3.4 0 0 1.81 0 0.06 -0.17 0 -1.01 0 -0.18 0 0 -0.06zm9.45 7.05l0 0.2 -0.2 -0.02 -9.09 -1.25 -0.16 -0.02 0 -0.15 0 -0.9 0 -0.15 0.15 -0.02 4.79 -0.6 -4.8 -0.52 -0.14 -0.03 0 -0.15 0 -0.94 0 -0.16 0.16 -0.02 9.09 -1.3 0.2 -0.02 0 0.2 0 0.94 0 0.16 -0.16 0.02 -4.88 0.53 4.89 0.78 0.15 0.02 0 0.15 0 0.77 0 0.04 -0.15 0.02 -4.94 0.78 4.94 0.58 0.15 0.02 0 0.16 0 0.89zm-3.26 2.36l0 0.38 0 0.09 0 0.37 1.81 0c0.09,0 0.15,-0.02 0.17,-0.05 0.03,-0.03 0.04,-0.09 0.04,-0.17l0 -0.4c0,-0.09 -0.01,-0.15 -0.04,-0.17 -0.03,-0.03 -0.09,-0.04 -0.17,-0.04l-1.81 0zm-6.19 -1.15l0 -0.17 0.17 0 7.44 0c0.4,0 0.72,0.05 0.97,0.14 0.25,0.09 0.45,0.22 0.59,0.36 0.14,0.15 0.24,0.31 0.29,0.5 0.05,0.18 0.08,0.36 0.08,0.54l0 0.4c0,0.18 -0.03,0.36 -0.08,0.54 -0.05,0.18 -0.15,0.35 -0.29,0.5 -0.14,0.15 -0.34,0.27 -0.59,0.36 -0.25,0.09 -0.58,0.14 -0.97,0.14l-7.44 0 -0.17 0 0 -0.17 0 -0.98 0 -0.17 0.17 0 4.68 0 0 -0.15 0 -0.53 0 -0.15 -4.68 0 -0.17 0 0 -0.17 0 -0.98zm7.86 6.42c0.04,0 0.09,-0.01 0.15,-0.04 0.05,-0.03 0.08,-0.12 0.08,-0.28l0 -0.34 -2.16 0 -0.01 0.34c0,0.16 0.02,0.25 0.07,0.28 0.05,0.03 0.1,0.04 0.15,0.04l1.73 0zm1.59 -0.03c0,0.16 -0.02,0.32 -0.06,0.48 -0.04,0.16 -0.12,0.31 -0.24,0.45 -0.12,0.14 -0.28,0.25 -0.49,0.33 -0.21,0.09 -0.48,0.13 -0.8,0.13l-1.67 0c-0.17,0 -0.34,-0.04 -0.52,-0.11 -0.18,-0.08 -0.32,-0.22 -0.43,-0.44 -0.14,0.18 -0.32,0.32 -0.55,0.42 -0.23,0.09 -0.45,0.14 -0.68,0.14l-4.02 0 0 -1.36 4.4 0c0.09,0 0.15,-0.02 0.18,-0.05 0.03,-0.03 0.05,-0.09 0.05,-0.18l0 -0.43 -4.45 0 -0.18 0 0 -0.17 0 -1.01 0 -0.18 0.18 0 9.09 0 0.18 0 0 0.18 0 1.81zm-8.1 4.68c0,0.16 0.03,0.25 0.09,0.28 0.06,0.03 0.11,0.04 0.15,0.04l6.27 0c0.04,0 0.09,-0.01 0.15,-0.04 0.05,-0.03 0.08,-0.12 0.08,-0.28l0 -0.54 -6.73 0 -0.01 0.54zm0.24 1.68c-0.33,0 -0.6,-0.04 -0.8,-0.13 -0.21,-0.09 -0.37,-0.19 -0.49,-0.33 -0.12,-0.13 -0.2,-0.28 -0.24,-0.44 -0.04,-0.16 -0.06,-0.32 -0.06,-0.48l0 -2.02 0 -0.18 0.18 0 9.09 0 0.18 0 0 0.18 0 2.02c0,0.16 -0.02,0.32 -0.06,0.48 -0.04,0.16 -0.12,0.31 -0.24,0.44 -0.12,0.13 -0.28,0.24 -0.49,0.33 -0.21,0.09 -0.48,0.13 -0.8,0.13l-6.27 0zm8 3.1c0,0.18 -0.03,0.37 -0.08,0.56 -0.05,0.19 -0.15,0.36 -0.3,0.52 -0.15,0.15 -0.35,0.28 -0.61,0.38 -0.26,0.1 -0.6,0.15 -1.02,0.15l-0.61 0 -0.18 0 0 -0.18 0 -1.01 0 -0.17 0.17 0 1.02 0c0.01,0 0.03,-0 0.06,-0.01 0.03,-0.01 0.05,-0.03 0.08,-0.06 0.03,-0.03 0.05,-0.07 0.07,-0.13 0.02,-0.06 0.03,-0.13 0.03,-0.23 0,-0.17 -0.03,-0.29 -0.08,-0.35 -0.05,-0.06 -0.1,-0.09 -0.15,-0.09l-0.91 0c-0.02,0 -0.08,0.01 -0.18,0.02 -0.1,0.02 -0.24,0.07 -0.4,0.17 -0.28,0.17 -0.56,0.36 -0.83,0.56 -0.27,0.2 -0.54,0.41 -0.82,0.63 -0.71,0.57 -1.29,0.85 -1.75,0.85l-1.52 0c-0.53,0 -0.93,-0.13 -1.2,-0.4 -0.27,-0.27 -0.41,-0.67 -0.41,-1.2l0 -0.41c0,-0.53 0.14,-0.93 0.41,-1.2 0.27,-0.27 0.67,-0.4 1.2,-0.4l1.02 0 0.18 0 0 0.01 0 0.17 0 1.02 0 0.18 -0.17 0 -1.02 0c-0.06,0 -0.11,0.03 -0.16,0.09 -0.05,0.06 -0.08,0.17 -0.09,0.32 0.01,0.18 0.03,0.3 0.08,0.36 0.04,0.06 0.1,0.09 0.18,0.09l0.8 0 0.1 0 0.02 0c0.09,0 0.2,-0.02 0.32,-0.05 0.12,-0.03 0.2,-0.06 0.24,-0.09 0.3,-0.18 0.59,-0.38 0.88,-0.59 0.29,-0.21 0.58,-0.43 0.88,-0.66 0.71,-0.57 1.29,-0.86 1.75,-0.86l1.02 0c0.42,0 0.75,0.05 1.02,0.15 0.26,0.1 0.47,0.22 0.61,0.38 0.15,0.16 0.25,0.33 0.3,0.52 0.05,0.19 0.08,0.37 0.08,0.56l0 0.41z"/>
 </g>
</svg>
