<?xml version="1.0" encoding="UTF-8"?>
<!DOCTYPE svg PUBLIC "-//W3C//DTD SVG 1.1//EN" "http://www.w3.org/Graphics/SVG/1.1/DTD/svg11.dtd">
<!-- Creator: CorelDRAW -->
<svg xmlns="http://www.w3.org/2000/svg" xml:space="preserve" width="141.717mm" height="25.908mm" version="1.1" style="shape-rendering:geometricPrecision; text-rendering:geometricPrecision; image-rendering:optimizeQuality; fill-rule:evenodd; clip-rule:evenodd"
viewBox="0 0 383.26 70.07"
 xmlns:xlink="http://www.w3.org/1999/xlink"
 xmlns:xodm="http://www.corel.com/coreldraw/odm/2003">
 <defs>
  <style type="text/css">
   <![CDATA[
    .fil0 {fill:#FEFEFE;fill-rule:nonzero}
   ]]>
  </style>
 </defs>
 <g id="圖層_x0020_1">
  <metadata id="CorelCorpID_0Corel-Layer"/>
  <path class="fil0" d="M14.6 0c1.32,0 2.68,0.19 4.08,0.58 1.39,0.39 2.64,1.12 3.77,2.2 1.12,1.08 2.03,2.56 2.74,4.46 0.71,1.9 1.06,4.36 1.06,7.38l0 4.46 0 1.31 -1.29 0 -7.37 0 -1.23 0 0 -1.24 0 -7.42c0,-0.09 -0.03,-0.23 -0.1,-0.41 -0.07,-0.18 -0.21,-0.37 -0.41,-0.55 -0.21,-0.18 -0.52,-0.34 -0.93,-0.48 -0.41,-0.14 -0.96,-0.21 -1.65,-0.21 -1.24,0 -2.08,0.18 -2.54,0.55 -0.46,0.37 -0.69,0.73 -0.69,1.1l0 6.59c0,0.14 0.06,0.58 0.17,1.34 0.11,0.76 0.54,1.73 1.26,2.92 1.24,2.06 2.59,4.08 4.04,6.04 1.45,1.97 2.99,3.96 4.58,5.98 4.11,5.13 6.16,9.37 6.16,12.71l0 11.06c0,3.85 -0.97,6.75 -2.91,8.72 -1.95,1.97 -4.85,2.95 -8.74,2.95l-2.95 0c-3.84,0 -6.73,-0.98 -8.7,-2.95 -1.96,-1.97 -2.94,-4.88 -2.94,-8.72l0 -7.42 0 -1.31 0.07 0 1.24 0 7.42 0 1.31 0 0 1.24 0 7.42c0,0.41 0.23,0.8 0.69,1.17 0.46,0.37 1.24,0.6 2.34,0.69 1.33,-0.05 2.21,-0.23 2.64,-0.55 0.44,-0.32 0.65,-0.76 0.65,-1.31l0 -5.84 0 -0.76 0 -0.14c0,-0.69 -0.11,-1.45 -0.34,-2.3 -0.23,-0.85 -0.46,-1.43 -0.69,-1.75 -1.33,-2.15 -2.75,-4.28 -4.26,-6.39 -1.51,-2.11 -3.11,-4.24 -4.81,-6.39 -4.17,-5.17 -6.25,-9.41 -6.25,-12.71l0 -7.42c0,-3.02 0.35,-5.48 1.06,-7.38 0.71,-1.9 1.63,-3.39 2.77,-4.46 1.14,-1.08 2.4,-1.81 3.77,-2.2 1.37,-0.39 2.72,-0.58 4.04,-0.58l2.95 0zm30.77 24.73l2.75 0 0.62 0 2.68 0 0 -13.19c0,-0.64 -0.11,-1.06 -0.34,-1.27 -0.23,-0.21 -0.64,-0.31 -1.24,-0.31l-2.89 0c-0.64,0 -1.06,0.1 -1.27,0.31 -0.21,0.21 -0.31,0.63 -0.31,1.27l0 13.19zm-8.38 44.99l-1.24 0 0 -1.24 0 -54.06c0,-2.89 0.34,-5.24 1.03,-7.08 0.69,-1.83 1.57,-3.26 2.64,-4.29 1.08,-1.03 2.28,-1.74 3.61,-2.13 1.33,-0.39 2.63,-0.58 3.92,-0.58l2.89 0c1.28,0 2.59,0.19 3.92,0.58 1.33,0.39 2.53,1.1 3.61,2.13 1.08,1.03 1.96,2.46 2.64,4.29 0.69,1.83 1.03,4.19 1.03,7.08l0 54.06 0 1.24 -1.24 0 -7.14 0 -1.24 0 0 -1.24 0 -34 -1.1 0 -3.85 0 -1.1 0 0 34 0 1.24 -1.24 0 -7.14 0zm42.69 -58.73l0 14.08 11.47 0 1.31 0 0 1.24 0 7.56 0 1.24 -1.31 0 -11.47 0 0 33.32 0 1.31 -1.31 0 -7.28 0 -1.31 0 0 -1.31 0 -66.08 0 -1.31 1.31 0 22.19 0.07 0 1.24 0 7.35 0 1.31 -0.82 0 -12.78 0zm43.78 58.73l-21.78 0 -1.31 0 0 -1.31 0 -66.08 0 -1.31 1.31 0 21.78 0 0.41 0 0 1.31 0 7.35 0 1.31 -0.41 0 -13.19 0 0 14.01 11.47 0 1.31 0 0 1.31 0 7.56 0 1.24 -1.31 0 -11.47 0 0 24.73 13.19 0 0.41 0 0 1.24 0 7.35 0 1.31 -0.41 0zm18.44 0c-1.28,-0.05 -2.59,-0.27 -3.92,-0.69 -1.33,-0.41 -2.53,-1.14 -3.61,-2.2 -1.08,-1.05 -1.96,-2.52 -2.64,-4.4 -0.69,-1.88 -1.03,-4.28 -1.03,-7.21l0 -39.7c0,-2.98 0.35,-5.4 1.06,-7.28 0.71,-1.88 1.63,-3.35 2.75,-4.43 1.12,-1.08 2.36,-1.81 3.71,-2.2 1.35,-0.39 2.69,-0.58 4.02,-0.58l2.95 0c1.33,0 2.68,0.19 4.05,0.58 1.37,0.39 2.61,1.12 3.71,2.2 1.1,1.08 2,2.55 2.71,4.43 0.71,1.88 1.06,4.3 1.06,7.28l0 5.77 -1.24 0 -7.35 0 -1.31 0 0 -8.72c0,-0.64 -0.11,-1.08 -0.34,-1.31 -0.23,-0.23 -0.66,-0.34 -1.31,-0.34l-2.95 0c-0.64,0 -1.08,0.11 -1.31,0.34 -0.23,0.23 -0.34,0.66 -0.34,1.31l0 45.61c0,0.64 0.11,1.08 0.34,1.31 0.23,0.23 0.66,0.34 1.31,0.34l2.95 0c0.64,0 1.08,-0.11 1.31,-0.34 0.23,-0.23 0.34,-0.66 0.34,-1.31l0 -23.08 -1.85 0 -1.24 0 0 -1.24 0 -7.35 0 -1.31 1.24 0 10.51 0 1.24 0 0 1.31 0 41.9 0 1.31 -1.24 0 -1.65 0 -5.7 0 -1.31 0 -3.37 0 -1.24 0 -0.34 0zm48.11 -68.69l1.24 0 0 1.31 0 52.89c0,2.98 -0.35,5.42 -1.06,7.32 -0.71,1.9 -1.61,3.38 -2.71,4.43 -1.1,1.05 -2.34,1.77 -3.71,2.16 -1.37,0.39 -2.72,0.58 -4.05,0.58l-2.95 0c-1.33,0 -2.67,-0.19 -4.02,-0.58 -1.35,-0.39 -2.59,-1.11 -3.71,-2.16 -1.12,-1.05 -2.04,-2.53 -2.75,-4.43 -0.71,-1.9 -1.06,-4.34 -1.06,-7.32l0 -52.89 0 -1.31 1.31 0 7.35 0 1.24 0 0 1.31 0 55.85c0,0.64 0.11,1.08 0.34,1.31 0.23,0.23 0.66,0.34 1.31,0.34l2.95 0c0.64,0 1.08,-0.11 1.31,-0.34 0.23,-0.23 0.34,-0.66 0.34,-1.31l0 -55.85 0 -1.31 1.31 0 7.35 0zm19.19 23.7l2.75 0 0.62 0 2.68 0 0 -13.19c0,-0.64 -0.11,-1.06 -0.34,-1.27 -0.23,-0.21 -0.64,-0.31 -1.24,-0.31l-2.89 0c-0.64,0 -1.06,0.1 -1.27,0.31 -0.21,0.21 -0.31,0.63 -0.31,1.27l0 13.19zm-8.38 44.99l-1.24 0 0 -1.24 0 -54.06c0,-2.89 0.34,-5.24 1.03,-7.08 0.69,-1.83 1.57,-3.26 2.64,-4.29 1.08,-1.03 2.28,-1.74 3.61,-2.13 1.33,-0.39 2.63,-0.58 3.92,-0.58l2.89 0c1.28,0 2.59,0.19 3.92,0.58 1.33,0.39 2.53,1.1 3.61,2.13 1.08,1.03 1.96,2.46 2.64,4.29 0.69,1.83 1.03,4.19 1.03,7.08l0 54.06 0 1.24 -1.24 0 -7.14 0 -1.24 0 0 -1.24 0 -34 -1.1 0 -3.85 0 -1.1 0 0 34 0 1.24 -1.24 0 -7.14 0zm46.67 -57.15c0,-0.32 -0.1,-0.68 -0.31,-1.06 -0.21,-0.39 -0.88,-0.58 -2.03,-0.58l-2.47 0 0 15.73 2.47 0.07c1.14,0 1.82,-0.17 2.03,-0.52 0.21,-0.34 0.31,-0.7 0.31,-1.06l0 -12.57zm-0.21 -11.54c1.14,0 2.31,0.15 3.5,0.45 1.19,0.3 2.28,0.87 3.26,1.72 0.98,0.85 1.79,2.03 2.4,3.54 0.62,1.51 0.93,3.46 0.93,5.84l0 12.16c0,1.24 -0.27,2.5 -0.82,3.78 -0.55,1.28 -1.63,2.31 -3.23,3.09 1.33,1.01 2.34,2.34 3.02,3.98 0.69,1.65 1.03,3.3 1.03,4.95l0 29.19 -9.89 0 0 -32.01c0,-0.64 -0.11,-1.08 -0.34,-1.31 -0.23,-0.23 -0.66,-0.34 -1.31,-0.34l-3.16 0 0 32.35 0 1.31 -1.24 0 -7.35 0 -1.31 0 0 -1.31 0 -66.08 0 -1.31 1.31 0 13.19 0zm34.03 58.87c1.14,0 1.82,-0.21 2.03,-0.62 0.21,-0.41 0.31,-0.78 0.31,-1.1l0 -45.61c0,-0.32 -0.1,-0.68 -0.31,-1.06 -0.21,-0.39 -0.88,-0.58 -2.03,-0.58l-3.92 0 0 48.91 3.92 0.07zm12.23 -1.72c0,2.38 -0.31,4.33 -0.93,5.84 -0.62,1.51 -1.41,2.69 -2.37,3.54 -0.96,0.85 -2.04,1.42 -3.23,1.72 -1.19,0.3 -2.36,0.45 -3.5,0.45l-14.7 0 -1.31 0 0 -1.31 0 -66.08 0 -1.31 1.31 0 14.7 0c1.14,0 2.31,0.15 3.5,0.45 1.19,0.3 2.27,0.87 3.23,1.72 0.96,0.85 1.75,2.03 2.37,3.54 0.62,1.51 0.93,3.46 0.93,5.84l0 45.61zm9.37 11.54l-1.31 0 0 -1.31 0 -66.08 0 -1.31 1.31 0 7.35 0 1.24 0 0 1.31 0 66.08 0 1.31 -1.24 0 -7.35 0zm25.58 0l-7.35 0 -1.31 0 0 -1.31 0 -66.08 0 -1.31 1.31 0 8.79 0 1.03 0 0.21 0.96 7.76 37.02 0 -36.68 0 -1.31 1.31 0 7.35 0 1.24 0 0 1.31 0 66.08 0 1.31 -1.24 0 -8.86 0 -0.96 0 -0.27 -0.96 -7.76 -33.93 0 33.59 0 1.31 -1.24 0zm39.94 0c-1.28,-0.05 -2.59,-0.27 -3.92,-0.69 -1.33,-0.41 -2.53,-1.14 -3.61,-2.2 -1.08,-1.05 -1.96,-2.52 -2.64,-4.4 -0.69,-1.88 -1.03,-4.28 -1.03,-7.21l0 -39.7c0,-2.98 0.35,-5.4 1.06,-7.28 0.71,-1.88 1.63,-3.35 2.75,-4.43 1.12,-1.08 2.36,-1.81 3.71,-2.2 1.35,-0.39 2.69,-0.58 4.02,-0.58l2.95 0c1.33,0 2.68,0.19 4.05,0.58 1.37,0.39 2.61,1.12 3.71,2.2 1.1,1.08 2,2.55 2.71,4.43 0.71,1.88 1.06,4.3 1.06,7.28l0 5.77 -1.24 0 -7.35 0 -1.31 0 0 -8.72c0,-0.64 -0.11,-1.08 -0.34,-1.31 -0.23,-0.23 -0.66,-0.34 -1.31,-0.34l-2.95 0c-0.64,0 -1.08,0.11 -1.31,0.34 -0.23,0.23 -0.34,0.66 -0.34,1.31l0 45.61c0,0.64 0.11,1.08 0.34,1.31 0.23,0.23 0.66,0.34 1.31,0.34l2.95 0c0.64,0 1.08,-0.11 1.31,-0.34 0.23,-0.23 0.34,-0.66 0.34,-1.31l0 -23.08 -1.85 0 -1.24 0 0 -1.24 0 -7.35 0 -1.31 1.24 0 10.51 0 1.24 0 0 1.31 0 41.9 0 1.31 -1.24 0 -1.65 0 -5.7 0 -1.31 0 -3.37 0 -1.24 0 -0.34 0z"/>
 </g>
</svg>
